<?xml version="1.0" encoding="utf-8"?>
<!-- Generator: Adobe Illustrator 19.0.0, SVG Export Plug-In . SVG Version: 6.00 Build 0)  -->
<svg version="1.1" xmlns="http://www.w3.org/2000/svg" xmlns:xlink="http://www.w3.org/1999/xlink" x="0px" y="0px"
	 viewBox="0 0 429.7 285.3" style="enable-background:new 0 0 429.7 285.3;" xml:space="preserve">
<style type="text/css">
	.st0{fill:#FFFFFF;stroke:#FFFFFF;stroke-width:10;stroke-linecap:round;stroke-linejoin:round;stroke-miterlimit:10;}
	.st1{fill:url(#XMLID_11_);}
	.st2{fill:#FFFFFF;}
	.st3{display:none;fill-rule:evenodd;clip-rule:evenodd;fill:url(#XMLID_20_);}
	.st4{fill:#F9941C;}
	.st5{fill:#2D2D2D;stroke:#FFFFFF;stroke-miterlimit:10;}
	.st6{fill:#F9F9F9;stroke:#FFFFFF;stroke-width:10;stroke-linecap:round;stroke-linejoin:round;stroke-miterlimit:10;}
	.st7{enable-background:new    ;}
	.st8{clip-path:url(#XMLID_33_);enable-background:new    ;}
	.st9{fill:#171717;}
	.st10{clip-path:url(#XMLID_142_);enable-background:new    ;}
	.st11{clip-path:url(#XMLID_246_);enable-background:new    ;}
	.st12{clip-path:url(#XMLID_247_);enable-background:new    ;}
	.st13{fill:#814D0F;}
	.st14{clip-path:url(#XMLID_248_);enable-background:new    ;}
	.st15{fill:#7D4A0E;}
	.st16{clip-path:url(#XMLID_249_);enable-background:new    ;}
	.st17{clip-path:url(#XMLID_250_);enable-background:new    ;}
	.st18{clip-path:url(#XMLID_251_);enable-background:new    ;}
	.st19{clip-path:url(#XMLID_252_);enable-background:new    ;}
	.st20{clip-path:url(#XMLID_253_);enable-background:new    ;}
	.st21{clip-path:url(#XMLID_254_);enable-background:new    ;}
	.st22{clip-path:url(#XMLID_255_);enable-background:new    ;}
	.st23{clip-path:url(#XMLID_256_);enable-background:new    ;}
	.st24{clip-path:url(#XMLID_257_);enable-background:new    ;}
	.st25{clip-path:url(#XMLID_258_);enable-background:new    ;}
	.st26{clip-path:url(#XMLID_259_);enable-background:new    ;}
	.st27{clip-path:url(#XMLID_260_);enable-background:new    ;}
	.st28{clip-path:url(#XMLID_261_);enable-background:new    ;}
	.st29{clip-path:url(#XMLID_262_);enable-background:new    ;}
	.st30{clip-path:url(#XMLID_263_);enable-background:new    ;}
	.st31{fill:#DD8419;}
	.st32{clip-path:url(#XMLID_264_);enable-background:new    ;}
	.st33{clip-path:url(#XMLID_265_);enable-background:new    ;}
	.st34{clip-path:url(#XMLID_266_);enable-background:new    ;}
	.st35{fill:#282828;}
	.st36{clip-path:url(#XMLID_267_);enable-background:new    ;}
	.st37{clip-path:url(#XMLID_268_);enable-background:new    ;}
	.st38{clip-path:url(#XMLID_269_);enable-background:new    ;}
	.st39{clip-path:url(#XMLID_270_);enable-background:new    ;}
	.st40{clip-path:url(#XMLID_271_);enable-background:new    ;}
	.st41{clip-path:url(#XMLID_272_);enable-background:new    ;}
	.st42{clip-path:url(#XMLID_273_);enable-background:new    ;}
	.st43{clip-path:url(#XMLID_274_);enable-background:new    ;}
	.st44{clip-path:url(#XMLID_275_);enable-background:new    ;}
	.st45{clip-path:url(#XMLID_276_);enable-background:new    ;}
	.st46{clip-path:url(#XMLID_277_);enable-background:new    ;}
	.st47{clip-path:url(#XMLID_278_);enable-background:new    ;}
	.st48{clip-path:url(#XMLID_279_);enable-background:new    ;}
	.st49{clip-path:url(#XMLID_280_);enable-background:new    ;}
	.st50{clip-path:url(#XMLID_281_);enable-background:new    ;}
	.st51{clip-path:url(#XMLID_282_);enable-background:new    ;}
	.st52{clip-path:url(#XMLID_283_);enable-background:new    ;}
	.st53{clip-path:url(#XMLID_284_);enable-background:new    ;}
	.st54{clip-path:url(#XMLID_285_);enable-background:new    ;}
	.st55{clip-path:url(#XMLID_286_);enable-background:new    ;}
	.st56{clip-path:url(#XMLID_287_);enable-background:new    ;}
	.st57{clip-path:url(#XMLID_288_);enable-background:new    ;}
	.st58{clip-path:url(#XMLID_289_);enable-background:new    ;}
	.st59{clip-path:url(#XMLID_290_);enable-background:new    ;}
	.st60{clip-path:url(#XMLID_291_);enable-background:new    ;}
	.st61{clip-path:url(#XMLID_292_);enable-background:new    ;}
	.st62{clip-path:url(#XMLID_293_);enable-background:new    ;}
	.st63{clip-path:url(#XMLID_294_);enable-background:new    ;}
	.st64{clip-path:url(#XMLID_295_);enable-background:new    ;}
	.st65{clip-path:url(#XMLID_296_);enable-background:new    ;}
	.st66{clip-path:url(#XMLID_297_);enable-background:new    ;}
	.st67{clip-path:url(#XMLID_298_);enable-background:new    ;}
	.st68{clip-path:url(#XMLID_299_);enable-background:new    ;}
	.st69{clip-path:url(#XMLID_300_);enable-background:new    ;}
	.st70{clip-path:url(#XMLID_301_);enable-background:new    ;}
	.st71{clip-path:url(#XMLID_302_);enable-background:new    ;}
	.st72{clip-path:url(#XMLID_303_);enable-background:new    ;}
	.st73{clip-path:url(#XMLID_304_);enable-background:new    ;}
	.st74{clip-path:url(#XMLID_305_);enable-background:new    ;}
	.st75{clip-path:url(#XMLID_306_);enable-background:new    ;}
	.st76{clip-path:url(#XMLID_307_);enable-background:new    ;}
	.st77{clip-path:url(#XMLID_308_);enable-background:new    ;}
	.st78{clip-path:url(#XMLID_309_);enable-background:new    ;}
</style>
<g id="Layer_2">
</g>
<g id="Layer_6">
	<path id="XMLID_29_" class="st0" d="M369.3,173.2C369.3,88.6,300.7,20,216.1,20S62.9,88.6,62.9,173.2c0,35.1,11.8,67.4,31.6,93.2
		h243.1C357.5,240.5,369.3,208.2,369.3,173.2z"/>
</g>
<g id="Layer_13">
	<linearGradient id="XMLID_11_" gradientUnits="userSpaceOnUse" x1="217.0612" y1="222.4499" x2="212.7961" y2="52.8032">
		<stop  offset="0" style="stop-color:#199727"/>
		<stop  offset="1" style="stop-color:#7FD179"/>
	</linearGradient>
	<path id="XMLID_35_" class="st1" d="M365,172.6c0-82.4-66.8-149.2-149.2-149.2S66.6,90.3,66.6,172.6c0,35.5,12.4,68.1,33.1,93.7
		h232.2C352.6,240.7,365,208.1,365,172.6z"/>
</g>
<g id="Layer_24">
	<g id="XMLID_141_">
		<path id="XMLID_143_" class="st2" d="M369.3,145.4c6.8,6-7.7,12.9-26.6,7.6c0.8-3.6,6.6-11.1,10.4-15c-0.6,0-7.7,4.8-12.2,13.8
			c-3.2-1.1-10.8-1.4-15.3-1.2c6-6.9,5.3-16.8,17.3-28.7c0,0-5.6,2.9-9.3,9.6c-3.8,6.8-8.9,17.7-13.7,18.9
			c-7.5,0.9-24.1,13.8-34.3,5.9c0.2-4.1,3-10.8,6.5-14.3c5.9-4.1,16.2-9.5,31-11c2.9-0.6-8.9-3.2-28.7,5.3
			c3-6.5,17.9-20.4,38.6-24.7c20,2,15.6,11.9,33.8,18.6c2.1,0.2-6-8.4-12.2-15.8c-5-6.1-8-1.6-13.7-4c11.9,0.6,2.7,13.8,19.8,4.5
			c-1.9,0.3-0.6-3.4-0.6-3.4c-9-0.5-11.7-2.4-18-2.9c8.6-4.1,12.6,2.2,11.2-13.5c0,0.5,3.1-2-0.7,2.6c-3.8,4.7-9.2,8.9-17,10.5
			c-1.6,0.1-7.3,1.1-13.8,3.3c3.8-4.4,6.2-10.3,6.9-15.5c9.5-3.2,11.6-16.6,11.6-16.9l-2.8,6.7c0,0.1-1,5.3-8.6,8.2
			c0-0.5,0-0.9,0-1.4c0-7.1,1.7-12.1,5-15l0,0c-4.2,2.8-6.8,7.3-6.8,15c0,6.7-3.6,16-9.8,20.6c-3.9,1.6-7.9,3.7-11.1,6.3
			c-4.8,3.8-8.6,7.6-11.8,11.3c-1.5-4.1-2.3-11-2-16.3c0,0-2.2,9.9,0.7,17.8c-2.9,3.5-5.1,7.1-7,10.7c-4.2,8-8.6,9.5-11.7,9.5
			c-3.1-0.7-8.9-1.3-15.9-0.9c2.4-4.8,3.5-10.3,7.5-17.3c4.8-8.4,8-9.5,4.8-8.4c-9.3,6-9.8,17.5-17.4,26.2
			c-6.9,0.9-12.4,6.7-19.4,10.5c2.3-9.5,6.6-27.6,16.4-36.4c9.8-8.9,20.9-8.4,29.2-14.7c8.3-6.3,13.8-13.8,18.9-15.2
			c5-1.4,9.3-1.5,13.1-4.7c3.8-3.2,5.3-8.8,8.7-11.1c0,0-3.1,1.2-5,4.4c-2.4,4-5,7.3-12.3,8.5c-0.3,0-0.6,0.1-0.9,0.2
			c1.5-4.2,4.3-11.1,3.6-15.2c0,0-3.2,12.1-6,15.7c-5.2,1.3-8.4,3.5-13.3,8.2c-5.9,5.6-12.6,7-17.6,8.1c-5,1.1-7.1,1.7-3.6-3.3
			c3.2-4.5,4.8-13.5,8.3-20.8c4.4,0.4,11.4,1.3,15.1-0.3c0,0-9.8,0-14.2-1.5c0-0.1,0.1-0.2,0.1-0.3c4.2-7.5,14.1-12.8,21.9-15
			c7.8-2.3,16.1-6.2,20.9-15.3c0.8-2-3.5,4.6-10.8,9.1c-2.4,1.5-5.9,2.2-9.8,3.2c1-4.4,2.7-10.9,1.5-14.7c0,0-1.6,12.4-4.1,15.2
			c0,0,0,0.1,0,0.1c-7.4,2-16.1,5.4-22.8,16c-0.5-6.8-2.3-16.6,0.3-25.8c2.6-9.1,6.5-15.1,10.4-19c0,0-3,1.7-6.7,6.8
			c-5.3,7.2-8.6,16.5-8,30.8c-0.6,1.5-0.8-6-6-14.9c-2.5-4.2-5.4-6.3-8.1-9.9c0.9-4.3,3-11.7,1.8-15.8c0,0-1.2,9.5-3.2,13.8
			c-2.6-4-5.2-8.5-6.8-20.7c0,0-1.2,3.2,1.6,15.1c-8.4-7.1-19.4-5.4-19.9-5.4l0,0c0.1,0,12.9,0.6,21.1,9.5
			c3.7,9.6,11.5,12.1,15.1,25.6c3.2,12,0.7,22.2-2.7,29.8c-2.9-5.9-8.5-12.2-13.6-14.3c3.6,2.6,9.9,10,12.1,17.3
			c-0.4,0.7-0.7,1.3-1.1,2c-4.5,7.7-14.4,15.9-17.7,15.3c-2.5-2.5-8.8-9.8-11.8-19.8c9.8-22.5,15.2-20.3,15.2-20.3
			c-5.9-1.7-9.5,3-16.1,16.5c-0.4-2-0.6-4-0.7-6.2c-0.5-15.2,5.1-37.3-8-54.8c0.4,0.5,5,16.7,5.5,17.9c3.1,6.8,1.7,16.5,0.5,26.4
			c-0.2,1.8-0.4,3.6-0.6,5.5c-9.2-3.5-11.6-10.6-11.6-10.6c-0.5,3.7,4.2,9.9,11.4,12.8c-0.3,5.7,0.1,12.1,3.2,20
			c-6.1-3.4-15.3-6.1-20.5-5.6c3.5,0.7,14.1,3.2,22.2,9.6c1.3,2.6,2.8,5.4,4.7,8.3c1.8,4.2,1.7,8.3-2.4,14.1
			c-4.1,5.9-10.4,17.1-11.7,23.2c-0.9-6.8-4.7-19.9-11.5-30.9c5.3-11.2,11-12.3,11-12.3c-3-0.9-8.7,3.1-12.5,10
			c-1.4-2.1-3-4.1-4.6-5.9c-10.7-11.7-13.1-29.3-8.3-41.8c4.8-12.5,11-13.5,9.3-26.9c-1.7-13.4,10.6-20.9,14.4-24.1
			c0,0-15.5,5.6-16.3,15.5c0,0.3-0.1,0.5-0.1,0.8c-2.4-3.7-9.7-6.3-10.9-9.9c0,0,6.4,7.8,10.7,12c-0.8,10.7,1,13-4.1,19.2
			c-1.7,2.1-3.8,4.5-5.6,7.5c-2.8-13.8-9.4-17.4-13.9-24.6c-4.8-7.6-4.9-11.2-5.6-14.3c0,12.5,7.2,19.8,12.3,26.8
			c1.5,2.1,2.4,4.1,3,6.2c-5.7-3.2-10.6,3.1-16.8,3.3c7,1.6,12.1-5.4,17.3-0.3c0.3,2.8,0.3,5.9,0.6,9.5c-2.1,6.2-2.9,14.3,0,25.7
			c-6.5-10.8-21.9-15.2-32.6-19.1c-0.6-0.2-1.3-0.5-1.9-0.7c-3.7-3.6-6.4-8.4-7.3-13.2c2.1-6.6,16.3-12.1,17.9-23.6
			c-2.2,4.5-6.2,5.8-18.7,19.3c-0.9-3.9,6.3-20.6,3.1-23.7c1.2,3.3-5.5,16.2-5.5,21.9c0,4.9,1.5,12.9,5.9,17.6
			c-6.8-2.4-11.2-4.3-15.5-11.6c-1.6-2.6-3.6-5.3-5.7-7.9c-0.9-9.7-4.2-14.8-5.2-16.3c1.2,3.1,2.3,5.7,3.2,14.1
			c-5-5.5-8.2-9.2-10.4-9.8c3.5,2.7,7.9,8.1,15.1,18.8c7.2,10.7,7.5,13.1,23.6,17.7c16.1,4.7,29,12.9,37,29.3
			c-7.7-3.2-16.5,1.7-25.7,0c-1.6-0.3-3.1-0.7-4.7-1.2c-2.5-6.6-6-22.5-12.1-25.7c3.1,2.8,6.9,16.7,9,24.6
			c-8.1-1.6-16.8-13.2-18.8-15.3c1.1,3.5,9.1,13.5,15.3,16.3c11,5,18.3,5,25.7,4.2c7.4-0.8,18.5,3.2,22.7,11.9
			c1.5,3.1,2.8,7.1,3.7,11.1c-9.7-6-10.9-7-22.9-17c5.4,8,15.4,14.5,23.4,19.6c1.2,6.4,1.3,12.3-0.1,14.1
			c-6.4,1.5-19.4,2.5-27.3-0.9c-3.3-6.7-2-14.8-2.6-22c-0.8-8.2-5.2-14.9-4.6-11.3c4.4,11.6,0.6,20.1,2.5,30.2
			c-5.7-4.5-8-8.5-11.7-16c-3.1-6.3-11.6-9.7-21.2-10.3c-3.1-2.6-7.5-7.3-10.9-14.5c-4.4-9.3-8.2-12.6-7.7-21.2
			c0.5-8.9-3.7-23-7.1-26.8c2.3,3.9,6,18.6,5.6,23.5c-0.6,6.6,0.6,15.7,3.2,20.8c-5.3-1.6-11.9-9.6-14.3-13.4
			c0.7,2.1,1.3,3.3,2.4,4.6c2.9,3.4,11.8,12.9,15.2,13.7c2.8,5,3.3,8.6,8.4,13.3c-1.4,0.1-2.8,0.2-4.2,0.3
			c-9.1,1.1-13.9,4.1-21.5,3.8c-4.4-3.6-5.3-10.7-6.3-16.3c-1.2-6.5-2.4-7.5-7.2-15c-4.8-7.5,3.7-20.7,3.1-21.1
			c-1.4,4.1-8.5,15.7-5.6,20.1C89.7,98.4,83.4,93,81,92.9c7.2,3.5,11.1,7.8,16.7,16.3c0.8,1.2,1.4,2.5,1.9,3.9c-11.7-0.5-20-7-20-7
			c3.1,4.8,14.8,9.1,20.7,9.2c1.8,6.5,1.5,13.8,4.6,19.1c-1.8-0.4-3.8-1-6-1.8c-15.8-5.9-25.3-5.4-32.5-1.7
			c-7.2,3.8-0.9,7.7-3.4,6.8c-0.2,0.5-2.9-2.2,3.1-4.6c9.5-3.8,16-3.5,23.7-0.8c-2.8,5-7.9,9.6-12.6,12.4c2.7-0.6,5.9-2.6,7-3.4
			c3.3-2.4,5.6-4.7,8.1-8c0.5,0.2,1,0.4,1.6,0.7c9.6,4.2,17.7,6.5,31.4,3.2c13.7-3.3,33.2-4.1,37.9,17.7c-10.1-3-23.3-3.6-35.4,1.7
			c-7.5-3.7-11.6-8.1-13.2-9.4c0,0,0.1,0.2,0,0c0.6,1.5,3.9,6.5,11.1,10.4c-5.2,2.6-9.6,5.6-13.7,8.1c-13.5-0.3-20.8-7.7-22.7-9.4
			c-2-1.7-2.4-1-0.8,0.6c1.6,1.6,8.1,9,20.7,10.4c-4.5,2.5-8.9,4.1-14.1,3.6c-11.1-1.1-16.4-7.4-26.3-5.6c-1.2,0.9,6,0,14,4.2
			c8,4.2,16.5,6.5,28.9-1.1c12.3-7.5,28.9-12.8,46.8-7.8c17.9,5,12.4,18.4,28.8,19.6c6.5,5.4-1.5,22.3,0,32.5
			c3.5,24-11.5,28.5-13.9,41.4c-2.4,12.9-20.5,9.8,22.5,22.6c0,2.9,14.4,4.2,26.9,4.2c12.5,0,44.1-7.6,44.1-10.4
			c-5.6-12.9-20.3-16.9-21.8-29.5c-1.5-12.6-14-43.1-2-68.6c10.5-9,24.4-16.5,37.2-10.9c12.8,5.6,23.5,1.9,39.1-6.4
			c4.2,0.6,15.4,6.6,20.7,12.1c-1.3-2.6-10.6-11.3-15.1-13.1c10.8-1.1,19.6,3.2,26.1,2.9c6.5-0.3,12,1.3,14.2-0.3c2.9,3,0.2,3.1,7,3
			c-0.1-0.8-2.3-3.4-6.3-10c2.3-2.7-8-10,3.6-6.2C364.9,141.7,362.3,139.2,369.3,145.4z"/>
		<path id="XMLID_115_" class="st2" d="M88,96.5"/>
	</g>
	<path id="XMLID_140_" class="st2" d="M299.4,118.3c0,0,7-6.3-0.5-13C291.8,110.8,296.3,117.5,299.4,118.3z"/>
	<path id="XMLID_139_" class="st2" d="M287.5,126.3c0,0,4.1-8.5-5.4-11.8C277.6,122.2,284.3,126.7,287.5,126.3z"/>
	<path id="XMLID_138_" class="st2" d="M287.3,81.3c0,0,8.7,3.5,11.4-6.2C290.7,71.1,286.6,78.1,287.3,81.3z"/>
	<path id="XMLID_137_" class="st2" d="M345,140.3c0,0,9-2.7,5.1-12C341.3,130.2,342.5,138.3,345,140.3z"/>
	<path id="XMLID_136_" class="st2" d="M330.7,126.8c0,0,8.1-4.8,2-12.8C324.6,118,327.8,125.4,330.7,126.8z"/>
	<path id="XMLID_133_" class="st2" d="M178,65.7c0,0,1.9-9.2-8.1-10.1C167.3,64.2,175,66.9,178,65.7z"/>
	<path id="XMLID_132_" class="st2" d="M154.4,51.3c0,0,9.1-2.7,5.1-11.9C150.7,41.2,151.9,49.3,154.4,51.3z"/>
	<path id="XMLID_131_" class="st2" d="M168.2,114.9c0,0,8.5-4.1,3.1-12.6C162.9,105.5,165.4,113.3,168.2,114.9z"/>
	<path id="XMLID_130_" class="st2" d="M221.5,79.1c0,0,2.7-9.1-7.3-10.8C211,76.7,218.4,80.1,221.5,79.1z"/>
	<path id="XMLID_129_" class="st2" d="M207.4,50.8c0,0,9.1-2.4,5.5-11.8C204,40.6,205,48.7,207.4,50.8z"/>
	<path id="XMLID_128_" class="st2" d="M228.8,55.2c0,0,8.1-4.8,2-12.8C222.7,46.4,225.8,53.9,228.8,55.2z"/>
	<path id="XMLID_127_" class="st2" d="M237.4,59.8c0,0,9.4-1.1,7-10.9C235.4,49.2,235.2,57.3,237.4,59.8z"/>
	<path id="XMLID_125_" class="st2" d="M221.4,102.1c0,0-1.7-9.3-11.3-6.4C210.9,104.7,219,104.4,221.4,102.1z"/>
	<path id="XMLID_124_" class="st2" d="M198.6,75.2c0,0,8.7,3.5,11.4-6.2C202,65,197.9,72.1,198.6,75.2z"/>
	<path id="XMLID_123_" class="st2" d="M271.4,132.7c0,0,7.5,5.7,12.7-2.9C277.4,123.7,271.6,129.4,271.4,132.7z"/>
	<path id="XMLID_122_" class="st2" d="M234.2,105.7c0,0,8.1-4.8,2-12.8C228.1,96.9,231.3,104.4,234.2,105.7z"/>
	<path id="XMLID_121_" class="st2" d="M257.8,89.5c0,0,3.9-8.6-5.6-11.7C247.8,85.6,254.6,90,257.8,89.5z"/>
	<path id="XMLID_120_" class="st2" d="M274.6,105.7c0,0,9.4-1.1,7-10.9C272.7,95.2,272.5,103.3,274.6,105.7z"/>
	<path id="XMLID_118_" class="st2" d="M68.8,146.9c0,0,9.1-2.7,5.1-11.9C65.2,136.8,66.3,144.8,68.8,146.9z"/>
	<path id="XMLID_117_" class="st2" d="M72.3,155.3c0,0,1.1,9.4,10.9,7C82.9,153.3,74.8,153.2,72.3,155.3z"/>
	<path id="XMLID_116_" class="st2" d="M109,99.3c0,0,8.1-4.8,2-12.8C102.9,90.5,106.1,97.9,109,99.3z"/>
	<path id="XMLID_113_" class="st2" d="M135.8,67.4c0,0,6-7.3-2.5-12.8C127.1,61.1,132.6,67.1,135.8,67.4z"/>
	<path id="XMLID_112_" class="st2" d="M329.3,102.7c0,0,8.7,3.5,11.4-6.2C332.7,92.5,328.6,99.5,329.3,102.7z"/>
	<path id="XMLID_111_" class="st2" d="M309.5,84.7c0,0,9.4-1.1,7-10.9C307.5,74.2,307.4,82.3,309.5,84.7z"/>
	<path id="XMLID_110_" class="st2" d="M292.9,65.5c0,0-1.7-9.3-11.3-6.4C282.5,68.1,290.6,67.8,292.9,65.5z"/>
	<path id="XMLID_109_" class="st2" d="M266,42.9c0,0,8.1-4.8,2-12.8C259.9,34,263.1,41.5,266,42.9z"/>
	<path id="XMLID_108_" class="st2" d="M284.1,53.4c0,0,9.4-1.1,7-10.9C282.1,42.8,282,50.9,284.1,53.4z"/>
	<path id="XMLID_107_" class="st2" d="M347.4,171.3c0,0,4.4-8.4-5-12C337.6,167,344.2,171.7,347.4,171.3z"/>
	<path id="XMLID_106_" class="st2" d="M358.9,170c0,0,9.4-1.1,7-10.9C356.9,159.4,356.8,167.5,358.9,170z"/>
	<path id="XMLID_105_" class="st2" d="M354,145.4c0,0,9.4-0.1,8.2-10.1C353.2,134.7,352.2,142.7,354,145.4z"/>
	<path id="XMLID_103_" class="st2" d="M162.9,125.9c0,0-4.7,8.2,4.6,12.1C172.6,130.5,166.1,125.6,162.9,125.9z"/>
	<path id="XMLID_102_" class="st2" d="M331.9,148.6c0,0,9.4-1.1,7-10.9C329.9,138.1,329.7,146.2,331.9,148.6z"/>
	<path id="XMLID_101_" class="st2" d="M105,81.7c0,0,4.1-8.5-5.4-11.8C95,77.7,101.8,82.2,105,81.7z"/>
	<path id="XMLID_100_" class="st2" d="M227.1,37.5c0,0,9.1-2.7,5.1-11.9C223.5,27.4,224.6,35.4,227.1,37.5z"/>
	<path id="XMLID_99_" class="st2" d="M148.1,103.5c0,0,4.1-8.5-5.4-11.8C138.2,99.4,144.9,104,148.1,103.5z"/>
	<path id="XMLID_98_" class="st2" d="M136,92.2c0,0,1.9-9.2-8.1-10.1C125.4,90.7,133,93.5,136,92.2z"/>
	<path id="XMLID_97_" class="st2" d="M92,147.6c0,0,0,9.4,10,8.3C102.7,147,94.7,145.8,92,147.6z"/>
	<path id="XMLID_96_" class="st2" d="M69.4,179.3c0,0,8.7,3.8,11.6-5.9C73,169.2,68.8,176.1,69.4,179.3z"/>
	<path id="XMLID_95_" class="st2" d="M179.8,43.9c0,0,8.1-4.8,2-12.8C173.7,35.1,176.8,42.5,179.8,43.9z"/>
	<path id="XMLID_94_" class="st2" d="M244.4,62.7c0,0,4.1,8.5,12.6,3.1C253.8,57.5,246.1,59.9,244.4,62.7z"/>
	<path id="XMLID_93_" class="st2" d="M200.2,34.6c0,0,6-7.3-2.5-12.8C191.5,28.3,196.9,34.3,200.2,34.6z"/>
	<path id="XMLID_92_" class="st2" d="M203.6,120c0,0,9-2.7,5.1-12C199.9,109.9,201.1,117.9,203.6,120z"/>
	<path id="XMLID_91_" class="st2" d="M251.7,100.2"/>
	<path id="XMLID_90_" class="st2" d="M253.6,87.4"/>
	<path id="XMLID_89_" class="st2" d="M309.5,108.5c0,0,9.4-1.1,7-10.9C307.5,98,307.4,106.1,309.5,108.5z"/>
	<path id="XMLID_86_" class="st2" d="M229.5,75c0,0,9.4-0.1,8.2-10.1C228.7,64.3,227.7,72.3,229.5,75z"/>
	<path id="XMLID_85_" class="st2" d="M316.9,137.9c0,0,7.8,5.3,12.5-3.7C322.3,128.6,316.9,134.6,316.9,137.9z"/>
</g>
<g id="Layer_15">
</g>
<g id="Layer_21">
</g>
<g id="Layer_23">
	<linearGradient id="XMLID_20_" gradientUnits="userSpaceOnUse" x1="98.9382" y1="293.2649" x2="239.7455" y2="100.3376">
		<stop  offset="0" style="stop-color:#5C9C45"/>
		<stop  offset="1" style="stop-color:#7FBA42"/>
	</linearGradient>
	<path id="XMLID_36_" class="st3" d="M233,53.3c-1.7,2.5-3.5,4.9-5.4,7.2v0c-2.9-4.2-6.2-8.2-9.6-12.1
		C223.1,49.7,228.1,51.4,233,53.3L233,53.3z M186.2,44.4c-2.5,0-4.9,0.1-7.3,0.2c0.7,3.9,0.5,8.1-0.6,12.7
		c-5.5-3.4-9.5-7.2-11.9-11.4c-3.3,0.5-6.6,1.2-9.9,1.9c18.6,20.4,29,45.6,31,75.7l0,0c9.7,9.5,18.3,20.4,25.8,32.5v0
		c6-13.5,16-24,27.5-34.8l0,0c-1.4-26.2-14.4-51.4-39.1-75.9C196.7,44.7,191.5,44.4,186.2,44.4L186.2,44.4z M240.6,56.6
		c-2.3,4.1-4.8,8.2-7.7,12.1l0,0c8,13.5,13.5,28.4,16.4,44.6c1.9-1.8,3.8-3.6,5.8-5.4c8.5-8,15.6-16.8,21.3-26.2
		c-2.7-2.7-5.5-5.3-8.5-7.7c0,6.1-2.3,12.1-7,17.8c-6.1-9.5-7.3-18.1-3.6-25.8C252,62.5,246.4,59.3,240.6,56.6L240.6,56.6z
		 M284.1,90.1c8.2,9.8,15,20.9,20,32.9c-2.8,4.7-5.2,9.4-7.1,14.2l0,0c-31.3,12.8-55.7,35.7-73.2,68.4c-9.1-34.9,9.7-64.8,29.7-83
		C267.6,110.1,276.9,101,284.1,90.1L284.1,90.1z M307.8,133.1l0.1,0.3l-0.2,0.1v0L307.8,133.1L307.8,133.1z M310.5,142.9
		c-19.3,6.3-35.2,16.8-47.9,31.7c15.8-6.2,32.8-8.7,51.1-7.5c-0.2-4.6-0.6-9.2-1.3-13.6c-1.4-1-2.7-2.1-4.1-3.4
		c1.1-0.6,2.2-1.1,3.2-1.6C311.3,146.6,310.9,144.7,310.5,142.9L310.5,142.9z M313.8,173.8c-17.8-0.8-37,2-57.6,8.4
		c-9.9,11.6-17.1,26.8-21.4,45.5c22.1-16.2,48.5-23.5,74.6-22c0.6-2.2,1.1-4.3,1.6-6.5c-0.8-0.2-1.6-0.5-2.4-0.8
		c1.1-1.3,2.2-2.6,3.3-3.7C313.1,187.9,313.8,180.9,313.8,173.8L313.8,173.8z M306.5,214.8c-11,31-33.6,56.4-62.6,71.2
		c-0.8-2.8-1.4-5.8-1.9-8.8c-1.5-10.1-2.5-22.1,2.5-31.3C258.8,219.6,279.2,214,306.5,214.8L306.5,214.8z M198.5,299.2
		c-4,0.4-8.1,0.6-12.3,0.6c-30.2,0-58-10.5-79.8-28c-8.2-9-15.3-19-21.1-29.8c19.2-12.3,40.6-19.5,63.9-21.9
		c25.9-2.6,53.8,2.2,60.4,30.9c2,8.4-3,30.1-6.3,38.5C201.9,292.9,200.3,296.1,198.5,299.2L198.5,299.2z M100.2,77.8
		c6.2-5.6,12.9-10.7,20.2-15.1c1.5,6.8,6.4,12.5,14.6,17.3c1.9-9,0.4-16.6-4.5-22.8c5.9-2.9,12.1-5.3,18.5-7.2
		c16.3,16.8,26.5,39,30.7,66.3v0C158.1,97.8,131.6,85,100.2,77.8L100.2,77.8z M82.3,236.1c-7-14.4-11.7-30.1-13.8-46.6
		c61.7-37.7,108.4-26.7,140.1,33.1C179.3,199.3,137.2,203.8,82.3,236.1L82.3,236.1z M67.6,179.3c19-9.8,37-15.9,54-18.1l0,0
		c-10.1-15.3-26.1-26.4-48.1-33.4c-1.9,6.5-3.4,13.2-4.5,20.1c10.3-5.6,20.3-4.8,30,2.5c-11.2,8-21.4,8.6-30.6,2
		c-0.7,6-1.1,12-1.1,18.2C67.4,173.5,67.5,176.4,67.6,179.3L67.6,179.3z M76.1,120c1.5-4.1,3.1-8.2,5-12.2
		c4.9,7.4,13.2,10.7,24.8,10c-4-10.3-11-16.1-21-17.6c2.7-5.1,5.6-10,8.9-14.6c52.3,12.7,91,39.5,116.2,80.4h0
		c-1.8,6.9-2.7,14.7-2.2,23.6c-21.9-20.3-46.6-30-74-29.3v0C116,138.1,96.8,124.7,76.1,120L76.1,120z M256.2,200
		c14.7,3.7,25.1-0.4,31.1-12.4C273.8,184.4,263.4,188.5,256.2,200L256.2,200z M277.7,139.9c-3.4-13.1,0.7-23.5,12.4-31.2
		C294.7,121.3,290.6,131.7,277.7,139.9L277.7,139.9z M235.7,156.5c3.2-13.1,11.8-20.3,25.7-21.6
		C259.4,148.2,250.8,155.4,235.7,156.5L235.7,156.5z M219.8,130.1c-8.2-12.8-7.5-24,2-33.5C229,108.5,228.4,119.7,219.8,130.1
		L219.8,130.1z M197.3,120.4c-8.2-12.8-7.5-24,2-33.5C206.6,98.8,206,110,197.3,120.4L197.3,120.4z M216.9,77.1
		c-15.1,2.1-24.9-3.1-29.6-15.7C201.1,59.7,211,64.9,216.9,77.1L216.9,77.1z M166.4,94.8c-14.6-4.3-21.4-13.1-20.5-26.5
		C159.2,72.4,166,81.3,166.4,94.8L166.4,94.8z M191.5,160.4c-15.2,0.5-24.4-5.8-27.7-18.9C177.7,141.4,186.9,147.7,191.5,160.4
		L191.5,160.4z M147.4,153.6c-0.4-13.5-7.2-22.4-20.5-26.5C126,140.5,132.8,149.3,147.4,153.6L147.4,153.6z M143.6,109.1
		c-10.9-8.1-22-8.2-33.5-0.2C120.1,117.8,131.3,117.9,143.6,109.1L143.6,109.1z M105.5,207.7c-10.8-8.1-22-8.2-33.5-0.3
		C81.9,216.4,93.1,216.5,105.5,207.7L105.5,207.7z M141.7,178.6c-12.9-4.1-23.5-0.6-31.8,10.7C122.3,194.6,132.8,191,141.7,178.6
		L141.7,178.6z M183.4,196.4c-9.1-10-20.1-12.2-32.9-6.7C158.6,200.5,169.5,202.7,183.4,196.4z"/>
</g>
<g id="Layer_16">
</g>
<g id="Layer_7">
</g>
<g id="Layer_4">
	<rect id="XMLID_2_" x="1" y="247.3" class="st4" width="428.7" height="38"/>
</g>
<g id="Layer_5">
	<g id="XMLID_220_">
		<path id="XMLID_221_" class="st5" d="M63.2,259.4h-8.4v21.5h-9.4v-21.5H37v-7.5h26.2V259.4z"/>
		<path id="XMLID_223_" class="st5" d="M95.5,280.8l-9.6,0l-0.3-1.6c-0.1-0.3-0.1-0.7-0.1-1.3c0-0.6,0-1,0-1.4c0-0.5,0-0.9,0-1.2
			s0-0.5,0-0.6c0-1-0.2-1.8-0.5-2.5c-0.3-0.7-0.9-1.1-1.7-1.3h-1.1h-4.9v9.9h-9.1v-29h19.1c2.1,0,3.8,0.8,5.1,2.3
			c1.4,1.5,2.1,3.4,2.1,5.6c0,1.6-0.3,3-1,4.3c-0.7,1.3-1.7,2.2-3,2.8c-0.1,0.3-0.2,0.6-0.2,0.7c1.3,0.4,2.3,1.1,3,2.1
			c0.7,1.1,1.1,2.3,1.1,3.6l0.2,5.1c0,0.4,0,0.8,0.1,1c0.1,0.2,0.2,0.4,0.5,0.5h0.4V280.8z M83.3,259.1h-6.1v5.3H83
			c0.6,0,1.1-0.3,1.5-0.8c0.3-0.5,0.5-1.2,0.5-2c0-0.7-0.1-1.3-0.4-1.8C84.3,259.3,83.9,259.1,83.3,259.1z"/>
		<path id="XMLID_226_" class="st5" d="M124.7,280.9h-24v-29h23.4v6.9h-14.3v3.9h12.1v6.7h-12.1v4.5h14.9V280.9z"/>
		<path id="XMLID_228_" class="st5" d="M154.5,280.9h-24v-29h23.4v6.9h-14.3v3.9h12.1v6.7h-12.1v4.5h14.9V280.9z"/>
		<path id="XMLID_230_" class="st5" d="M204,280.9h-24v-29h23.4v6.9h-14.3v3.9h12.1v6.7h-12.1v4.5H204V280.9z"/>
		<path id="XMLID_232_" class="st5" d="M237.6,280.9h-10.7l-4.3-7.6h-0.3l-4.4,7.6h-10.6l9.9-14.9l-9-14.1h10.3l3.9,7h0.4l3.9-7
			h10.5l-9.4,13.9L237.6,280.9z"/>
		<path id="XMLID_234_" class="st5" d="M266.5,265.7c-0.4,1.3-1.1,2.4-2.1,3.5c-1,1-2.1,1.7-3.3,2.1c-1,0.3-2.1,0.6-3.3,0.8
			c-1.2,0.2-2.5,0.2-3.7,0.2c-0.7,0-1.4,0-2.1,0c-0.7,0-1.3-0.1-1.7-0.1v8.8h-9.1v-29h16.5c1.9,0,3.6,0.5,5.1,1.5
			c1.5,1,2.6,2.2,3.3,3.6c0.8,1.5,1.1,3,1.1,4.8C267.2,263.2,267,264.5,266.5,265.7z M257.9,263.4c0.2-0.5,0.3-1,0.3-1.5
			c0-0.5-0.2-1.1-0.6-1.7c-0.4-0.6-1.3-1-2.6-1h-4.8v5.9h5.3c0.5,0,1-0.2,1.4-0.5C257.4,264.3,257.7,263.9,257.9,263.4z"/>
		<path id="XMLID_237_" class="st5" d="M295.8,280.9h-24v-29h23.4v6.9h-14.3v3.9H293v6.7h-12.1v4.5h14.9V280.9z"/>
		<path id="XMLID_239_" class="st5" d="M328.6,280.8l-9.6,0l-0.3-1.6c-0.1-0.3-0.1-0.7-0.1-1.3c0-0.6,0-1,0-1.4c0-0.5,0-0.9,0-1.2
			s0-0.5,0-0.6c0-1-0.2-1.8-0.5-2.5c-0.3-0.7-0.9-1.1-1.7-1.3h-1.1h-4.9v9.9h-9.1v-29h19.2c2.1,0,3.8,0.8,5.1,2.3
			c1.4,1.5,2.1,3.4,2.1,5.6c0,1.6-0.3,3-1,4.3c-0.7,1.3-1.7,2.2-3,2.8c-0.1,0.3-0.2,0.6-0.2,0.7c1.3,0.4,2.3,1.1,3,2.1
			c0.7,1.1,1.1,2.3,1.1,3.6l0.2,5.1c0,0.4,0,0.8,0.1,1c0.1,0.2,0.2,0.4,0.5,0.5h0.4V280.8z M316.4,259.1h-6.1v5.3h5.7
			c0.6,0,1.1-0.3,1.5-0.8c0.3-0.5,0.5-1.2,0.5-2c0-0.7-0.1-1.3-0.4-1.8C317.3,259.3,316.9,259.1,316.4,259.1z"/>
		<path id="XMLID_242_" class="st5" d="M358.2,259.4h-8.4v21.5h-9.4v-21.5H332v-7.5h26.2V259.4z"/>
		<path id="XMLID_244_" class="st5" d="M387.9,274.1c-0.8,2.2-2.1,4-4,5.4c-1.9,1.4-4,2.1-6.3,2.1h-4.6c-1.9,0-3.8-0.7-5.7-2
			c-1.9-1.3-3.2-2.5-3.9-3.7c-0.7-1.1-1.2-2.4-1.3-3.9h9c0.3,1,0.8,1.7,1.5,2.1c0.7,0.5,1.6,0.7,2.6,0.7c0.8,0,1.7-0.1,2.6-0.4
			c0.7-0.5,1-1.1,1-1.8c0-0.3-0.1-0.6-0.2-0.8c-0.1-0.2-0.3-0.4-0.5-0.5c-0.2-0.1-1.1-0.5-2.8-0.9c-1.6-0.5-3.9-1.2-6.9-2.1
			c-1.6-0.8-3-1.8-4-2.8c-1.1-1-1.6-2-1.7-2.8c-0.1-0.8-0.1-1.5-0.1-1.9c0-1.3,0.3-2.6,0.8-3.8c0.5-1.2,1.3-2.3,2.4-3.2
			c1.1-0.9,2.5-1.6,4.2-2s3.6-0.6,5.6-0.6c1.8,0,3.5,0.3,5.2,0.9c1.6,0.6,3.1,1.6,4.3,3c1.2,1.4,2,3.1,2.1,5.1h-8.9
			c0-0.8-0.4-1.4-1.3-1.9s-1.9-0.7-3-0.7c-1.2,0-1.9,0.3-2.1,1c-0.2,0.7-0.3,1.1-0.3,1.4c0,0.2,0,0.4,0.1,0.5s0.3,0.3,0.5,0.6l9.9,3
			c1.8,0.7,3.2,1.7,4.3,3.2c1,1.4,1.5,3.1,1.5,4.9C388.1,272.7,388,273.4,387.9,274.1z"/>
	</g>
</g>
<g id="Layer_3">
	<g id="XMLID_197_">
		<path id="XMLID_198_" class="st6" d="M46.5,220.7c0,2-0.5,3.9-1.6,5.7c-1.1,1.8-2.4,3.2-3.9,4.1c-1.6,0.9-3.1,1.6-4.7,2
			c-1.6,0.4-3.2,0.6-5,0.6h-26v-44.8h26.8c3.3,0,6.1,0.9,8.5,2.8c2.4,1.9,3.8,4.4,4.1,7.6c0,2.1-0.4,4.1-1.2,5.9
			c-0.8,1.8-2.1,3.4-3.8,4.6c2.2,1.1,3.9,2.7,5,4.8C45.9,216.1,46.5,218.3,46.5,220.7z M31.6,202.9c0-1.2-0.3-2.1-0.8-2.8
			c-0.5-0.7-1.2-1.1-2.2-1.1h-9v7.6h7.1c1.2,0,2.3-0.4,3.3-1.2C31.1,204.5,31.6,203.7,31.6,202.9z M32.2,219c0-1.1-0.4-2.1-1.3-2.8
			c-0.9-0.8-2.1-1.1-3.7-1.1h-7.6v8.3h9c1.1,0,1.9-0.4,2.6-1.2C31.9,221.3,32.2,220.3,32.2,219z"/>
		<path id="XMLID_202_" class="st6" d="M92.9,233.2H55.6v-44.8H92v10.7H69.8v6h18.8v10.4H69.8v6.9h23.1V233.2z"/>
		<path id="XMLID_204_" class="st6" d="M144.9,233.2h-14.1l-15.2-23.3v23.3h-13.8v-44.8h13.8l15.4,23.6v-23.6h13.8V233.2z"/>
		<path id="XMLID_206_" class="st6" d="M226.4,220.7c0,2-0.5,3.9-1.6,5.7c-1.1,1.8-2.4,3.2-3.9,4.1c-1.6,0.9-3.1,1.6-4.7,2
			c-1.6,0.4-3.2,0.6-5,0.6h-26v-44.8h26.8c3.3,0,6.1,0.9,8.5,2.8c2.4,1.9,3.8,4.4,4.1,7.6c0,2.1-0.4,4.1-1.2,5.9
			c-0.8,1.8-2.1,3.4-3.8,4.6c2.2,1.1,3.9,2.7,5,4.8C225.8,216.1,226.4,218.3,226.4,220.7z M211.5,202.9c0-1.2-0.3-2.1-0.8-2.8
			c-0.5-0.7-1.2-1.1-2.2-1.1h-9v7.6h7.1c1.2,0,2.3-0.4,3.3-1.2C211,204.5,211.5,203.7,211.5,202.9z M212.1,219
			c0-1.1-0.4-2.1-1.3-2.8c-0.9-0.8-2.1-1.1-3.7-1.1h-7.5v8.3h9c1.1,0,1.9-0.4,2.6-1.2C211.8,221.3,212.1,220.3,212.1,219z"/>
		<path id="XMLID_210_" class="st6" d="M250.2,233.2h-14.8v-44.8h14.8V233.2z"/>
		<path id="XMLID_212_" class="st6" d="M302.5,188.4l-15.1,44.8h-14.6l-15.3-44.8h14.8l7.6,28.3h0.4l7.8-28.3H302.5z"/>
		<path id="XMLID_214_" class="st6" d="M325.1,233.2h-14.8v-44.8h14.8V233.2z"/>
		<path id="XMLID_216_" class="st6" d="M378.2,233.2h-14.1l-15.2-23.3v23.3h-13.8v-44.8h13.8l15.4,23.6v-23.6h13.8V233.2z"/>
		<path id="XMLID_218_" class="st6" d="M426.2,222.7c-1.2,3.4-3.2,6.2-6.1,8.3c-2.9,2.1-6.2,3.2-9.8,3.2h-7.1c-3,0-5.9-1-8.8-3
			c-2.9-2-4.9-3.9-6.1-5.7c-1.1-1.7-1.8-3.8-2.1-6h14c0.4,1.5,1.2,2.6,2.4,3.3c1.1,0.7,2.5,1.1,4.1,1.1c1.3,0,2.6-0.2,4-0.7
			c1.1-0.8,1.6-1.7,1.6-2.8c0-0.5-0.1-0.9-0.3-1.2s-0.5-0.6-0.8-0.8c-0.3-0.2-1.7-0.7-4.3-1.4c-2.5-0.7-6.1-1.8-10.7-3.2
			c-2.5-1.3-4.6-2.7-6.2-4.3c-1.6-1.6-2.5-3.1-2.7-4.3c-0.1-1.3-0.2-2.3-0.2-2.9c0-2.1,0.4-4,1.2-5.9c0.8-1.9,2.1-3.5,3.8-4.9
			c1.7-1.4,3.9-2.4,6.5-3.1c2.6-0.6,5.5-1,8.7-1c2.8,0,5.5,0.5,8,1.4c2.5,1,4.7,2.5,6.7,4.6c1.9,2.1,3,4.7,3.3,7.9h-13.8
			c0-1.2-0.7-2.2-2.1-3c-1.4-0.7-2.9-1.1-4.6-1.1c-1.8,0-2.9,0.5-3.3,1.5c-0.3,1-0.5,1.7-0.5,2.1c0,0.4,0.1,0.6,0.2,0.8
			c0.1,0.2,0.4,0.5,0.8,0.9l15.4,4.6c2.8,1,5,2.7,6.6,4.9c1.6,2.2,2.4,4.7,2.4,7.6C426.6,220.6,426.5,221.6,426.2,222.7z"/>
	</g>
</g>
<g id="Layer_1">
	<g id="XMLID_24_">
		<g id="XMLID_405_">
			<g id="XMLID_1414_" class="st7">
				<g id="XMLID_1550_" class="st7">
					<defs>
						<path id="XMLID_1553_" class="st7" d="M44.9,197.4l-2.6,2.6c-0.3-3-1.6-5.4-3.9-7.2c-2.3-1.8-5.1-2.7-8.2-2.7l2.6-2.6
							c3.2,0,5.9,0.9,8.2,2.7C43.2,192,44.6,194.4,44.9,197.4z"/>
					</defs>
					<clipPath id="XMLID_33_">
						<use xlink:href="#XMLID_1553_"  style="overflow:visible;"/>
					</clipPath>
					<g id="XMLID_1551_" class="st8">
						<path id="XMLID_1552_" class="st9" d="M44.9,197.4l-2.6,2.6c-0.3-3-1.6-5.4-3.9-7.2c-2.3-1.8-5.1-2.7-8.2-2.7l2.6-2.6
							c3.2,0,5.9,0.9,8.2,2.7C43.2,192,44.6,194.4,44.9,197.4"/>
					</g>
				</g>
				<g id="XMLID_1546_" class="st7">
					<defs>
						<path id="XMLID_1549_" class="st7" d="M41.5,206.3l-2.6,2.6c0.9-0.9,1.6-2,2.2-3.1c0.8-1.8,1.2-3.7,1.2-5.7l2.6-2.6
							c0,2-0.4,4-1.2,5.7C43.1,204.3,42.4,205.3,41.5,206.3z"/>
					</defs>
					<clipPath id="XMLID_142_">
						<use xlink:href="#XMLID_1549_"  style="overflow:visible;"/>
					</clipPath>
					<g id="XMLID_1547_" class="st10">
						<path id="XMLID_1548_" class="st9" d="M41.5,206.3l-2.6,2.6c0.9-0.9,1.6-2,2.2-3.1c0.8-1.8,1.2-3.7,1.2-5.7l2.6-2.6
							c0,2-0.4,4-1.2,5.7C43.1,204.3,42.4,205.3,41.5,206.3"/>
					</g>
				</g>
				<g id="XMLID_1542_" class="st7">
					<defs>
						<path id="XMLID_1545_" class="st7" d="M42.2,207l-2.6,2.6c-0.3,0.3-0.6,0.6-1,0.9l2.6-2.6C41.6,207.5,41.9,207.3,42.2,207z"/>
					</defs>
					<clipPath id="XMLID_246_">
						<use xlink:href="#XMLID_1545_"  style="overflow:visible;"/>
					</clipPath>
					<g id="XMLID_1543_" class="st11">
						<path id="XMLID_1544_" class="st9" d="M42.2,207l-2.6,2.6c-0.3,0.3-0.6,0.6-1,0.9l2.6-2.6C41.6,207.5,41.9,207.3,42.2,207"/>
					</g>
				</g>
				<g id="XMLID_1538_" class="st7">
					<defs>
						<path id="XMLID_1541_" class="st7" d="M41.5,206.3l-2.6,2.6c-0.4,0.4-0.9,0.9-1.5,1.2l2.6-2.6
							C40.6,207.1,41.1,206.7,41.5,206.3z"/>
					</defs>
					<clipPath id="XMLID_247_">
						<use xlink:href="#XMLID_1541_"  style="overflow:visible;"/>
					</clipPath>
					<g id="XMLID_1539_" class="st12">
						<path id="XMLID_1540_" class="st13" d="M41.5,206.3l-2.6,2.6c-0.4,0.4-0.9,0.9-1.5,1.2l2.6-2.6
							C40.6,207.1,41.1,206.7,41.5,206.3"/>
					</g>
				</g>
				<g id="XMLID_1534_" class="st7">
					<defs>
						<path id="XMLID_1537_" class="st7" d="M29.2,201c-0.6-0.9-1.5-1.3-2.6-1.3l2.6-2.6c1.1,0,2,0.4,2.6,1.3
							C30.9,199.2,30,200.1,29.2,201z"/>
					</defs>
					<clipPath id="XMLID_248_">
						<use xlink:href="#XMLID_1537_"  style="overflow:visible;"/>
					</clipPath>
					<g id="XMLID_1535_" class="st14">
						<path id="XMLID_1536_" class="st13" d="M31.5,203.8l-2.6,2.6c0.8-0.8,1.1-1.5,1.1-2.3c0-1.3-0.3-2.3-0.9-3.2
							c-0.6-0.9-1.5-1.3-2.6-1.3l2.6-2.6c1.1,0,2,0.4,2.6,1.3c0.6,0.8,0.9,1.9,0.9,3.2C32.7,202.3,32.3,203,31.5,203.8"/>
					</g>
				</g>
				<g id="XMLID_1532_">
					<polygon id="XMLID_1533_" class="st15" points="40,207.5 37.4,210.1 36.8,210.6 39.4,208 					"/>
				</g>
				<g id="XMLID_1530_">
					<polygon id="XMLID_1531_" class="st9" points="40.1,208.3 37.5,211 36.8,210.6 39.4,208 					"/>
				</g>
				<g id="XMLID_1526_" class="st7">
					<defs>
						<path id="XMLID_1529_" class="st7" d="M30.1,204.1c0-1.3-0.3-2.3-0.9-3.2c0.1-0.1,0.2-0.2,0.3-0.3c0.1-0.1,0.2-0.2,0.3-0.3
							c0.1-0.1,0.2-0.2,0.3-0.3c0.1-0.1,0.2-0.2,0.3-0.3c0.1-0.1,0.2-0.2,0.3-0.3c0.1-0.1,0.2-0.2,0.3-0.3c0.1-0.1,0.2-0.2,0.3-0.3
							c0.1-0.1,0.2-0.2,0.3-0.3c0.6,0.8,0.9,1.9,0.9,3.2C31.8,202.4,30.9,203.2,30.1,204.1z"/>
					</defs>
					<clipPath id="XMLID_249_">
						<use xlink:href="#XMLID_1529_"  style="overflow:visible;"/>
					</clipPath>
					<g id="XMLID_1527_" class="st16">
						<path id="XMLID_1528_" class="st13" d="M31.5,203.8l-2.6,2.6c0.8-0.8,1.1-1.5,1.1-2.3c0-1.3-0.3-2.3-0.9-3.2
							c-0.6-0.9-1.5-1.3-2.6-1.3l2.6-2.6c1.1,0,2,0.4,2.6,1.3c0.6,0.8,0.9,1.9,0.9,3.2C32.7,202.3,32.3,203,31.5,203.8"/>
					</g>
				</g>
				<g id="XMLID_1522_" class="st7">
					<defs>
						<path id="XMLID_1525_" class="st7" d="M30.8,203.1l-2.6,2.6c0.6-0.6,0.8-1.1,0.8-1.6c0-1.1-0.2-1.9-0.7-2.6
							c-0.4-0.6-1-0.9-1.8-0.9l2.6-2.6c0.8,0,1.4,0.3,1.8,0.9c0.5,0.6,0.7,1.5,0.7,2.6C31.7,202,31.4,202.5,30.8,203.1z"/>
					</defs>
					<clipPath id="XMLID_250_">
						<use xlink:href="#XMLID_1525_"  style="overflow:visible;"/>
					</clipPath>
					<g id="XMLID_1523_" class="st17">
						<path id="XMLID_1524_" class="st9" d="M30.8,203.1l-2.6,2.6c0.6-0.6,0.8-1.1,0.8-1.6c0-1.1-0.2-1.9-0.7-2.6
							c-0.4-0.6-1-0.9-1.8-0.9l2.6-2.6c0.8,0,1.4,0.3,1.8,0.9c0.5,0.6,0.7,1.5,0.7,2.6C31.7,202,31.4,202.5,30.8,203.1"/>
					</g>
				</g>
				<g id="XMLID_1518_" class="st7">
					<defs>
						<path id="XMLID_1521_" class="st7" d="M28.9,206.4c0.8-0.8,1.1-1.5,1.1-2.3c0.1-0.1,0.2-0.2,0.3-0.3c0.1-0.1,0.2-0.2,0.3-0.3
							c0.1-0.1,0.2-0.2,0.3-0.3c0.1-0.1,0.2-0.2,0.3-0.3c0.1-0.1,0.2-0.2,0.3-0.3c0.1-0.1,0.2-0.2,0.3-0.3c0.1-0.1,0.2-0.2,0.3-0.3
							c0.1-0.1,0.2-0.2,0.3-0.3c0,0.8-0.4,1.5-1.1,2.3C30.7,204.6,29.7,205.6,28.9,206.4z"/>
					</defs>
					<clipPath id="XMLID_251_">
						<use xlink:href="#XMLID_1521_"  style="overflow:visible;"/>
					</clipPath>
					<g id="XMLID_1519_" class="st18">
						<path id="XMLID_1520_" class="st13" d="M31.5,203.8l-2.6,2.6c0.8-0.8,1.1-1.5,1.1-2.3c0-1.3-0.3-2.3-0.9-3.2
							c-0.6-0.9-1.5-1.3-2.6-1.3l2.6-2.6c1.1,0,2,0.4,2.6,1.3c0.6,0.8,0.9,1.9,0.9,3.2C32.7,202.3,32.3,203,31.5,203.8"/>
					</g>
				</g>
				<g id="XMLID_1514_" class="st7">
					<defs>
						<path id="XMLID_1517_" class="st7" d="M31.5,203.8l-2.6,2.6c-0.2,0.2-0.3,0.3-0.5,0.5l2.6-2.6
							C31.2,204.1,31.4,203.9,31.5,203.8z"/>
					</defs>
					<clipPath id="XMLID_252_">
						<use xlink:href="#XMLID_1517_"  style="overflow:visible;"/>
					</clipPath>
					<g id="XMLID_1515_" class="st19">
						<path id="XMLID_1516_" class="st9" d="M31.5,203.8l-2.6,2.6c-0.2,0.2-0.3,0.3-0.5,0.5l2.6-2.6
							C31.2,204.1,31.4,203.9,31.5,203.8"/>
					</g>
				</g>
				<g id="XMLID_1512_">
					<polygon id="XMLID_1513_" class="st15" points="29.2,197 26.6,199.6 17.1,199.6 19.7,197 					"/>
				</g>
				<g id="XMLID_1510_">
					<polygon id="XMLID_1511_" class="st9" points="29.2,198 26.6,200.6 18.1,200.6 20.7,198 					"/>
				</g>
				<g id="XMLID_1506_" class="st7">
					<defs>
						<path id="XMLID_1509_" class="st7" d="M31,204.3l-2.6,2.6c-1.1,0.9-2.3,1.4-3.6,1.4l2.6-2.6C28.7,205.6,29.9,205.2,31,204.3z"
							/>
					</defs>
					<clipPath id="XMLID_253_">
						<use xlink:href="#XMLID_1509_"  style="overflow:visible;"/>
					</clipPath>
					<g id="XMLID_1507_" class="st20">
						<path id="XMLID_1508_" class="st9" d="M31,204.3l-2.6,2.6c-1.1,0.9-2.3,1.4-3.6,1.4l2.6-2.6C28.7,205.6,29.9,205.2,31,204.3"
							/>
					</g>
				</g>
				<g id="XMLID_1502_" class="st7">
					<defs>
						<path id="XMLID_1505_" class="st7" d="M45.1,224.9l-2.6,2.6c1-1.7,1.5-3.6,1.5-5.4c0-2.3-0.6-4.5-1.7-6.5
							c-1.1-2-2.7-3.5-4.8-4.6l2.6-2.6c2.1,1.1,3.7,2.6,4.8,4.6c1.1,2,1.7,4.2,1.7,6.5C46.6,221.3,46.1,223.1,45.1,224.9z"/>
					</defs>
					<clipPath id="XMLID_254_">
						<use xlink:href="#XMLID_1505_"  style="overflow:visible;"/>
					</clipPath>
					<g id="XMLID_1503_" class="st21">
						<path id="XMLID_1504_" class="st9" d="M45.1,224.9l-2.6,2.6c1-1.7,1.5-3.6,1.5-5.4c0-2.3-0.6-4.5-1.7-6.5
							c-1.1-2-2.7-3.5-4.8-4.6l2.6-2.6c2.1,1.1,3.7,2.6,4.8,4.6c1.1,2,1.7,4.2,1.7,6.5C46.6,221.3,46.1,223.1,45.1,224.9"/>
					</g>
				</g>
				<g id="XMLID_1500_">
					<polygon id="XMLID_1501_" class="st9" points="32.7,187.4 30.1,190.1 3.8,190.1 6.4,187.4 					"/>
				</g>
				<g id="XMLID_1496_" class="st7">
					<defs>
						<path id="XMLID_1499_" class="st7" d="M43.2,227.4l-2.6,2.6c0.7-0.7,1.3-1.5,1.9-2.5l2.6-2.6
							C44.6,225.8,43.9,226.6,43.2,227.4z"/>
					</defs>
					<clipPath id="XMLID_255_">
						<use xlink:href="#XMLID_1499_"  style="overflow:visible;"/>
					</clipPath>
					<g id="XMLID_1497_" class="st22">
						<path id="XMLID_1498_" class="st9" d="M43.2,227.4l-2.6,2.6c0.7-0.7,1.3-1.5,1.9-2.5l2.6-2.6
							C44.6,225.8,43.9,226.6,43.2,227.4"/>
					</g>
				</g>
				<g id="XMLID_1492_" class="st7">
					<defs>
						<path id="XMLID_1495_" class="st7" d="M30.7,220.3c0-1.3-0.5-2.3-1.5-3.2c0.1-0.1,0.2-0.2,0.3-0.3c0.1-0.1,0.2-0.2,0.3-0.3
							c0.1-0.1,0.2-0.2,0.3-0.3c0.1-0.1,0.2-0.2,0.3-0.3c0.1-0.1,0.2-0.2,0.3-0.3c0.1-0.1,0.2-0.2,0.3-0.3c0.1-0.1,0.2-0.2,0.3-0.3
							c0.1-0.1,0.2-0.2,0.3-0.3c1,0.9,1.5,1.9,1.5,3.2C32.4,218.5,31.6,219.4,30.7,220.3z"/>
					</defs>
					<clipPath id="XMLID_256_">
						<use xlink:href="#XMLID_1495_"  style="overflow:visible;"/>
					</clipPath>
					<g id="XMLID_1493_" class="st23">
						<path id="XMLID_1494_" class="st13" d="M32.3,221.1l-2.6,2.6c0.7-0.9,1-2.1,1-3.4c0-1.3-0.5-2.3-1.5-3.2
							c-0.9-0.8-2.3-1.3-4-1.3l2.6-2.6c1.7,0,3.1,0.4,4,1.3c1,0.9,1.5,1.9,1.5,3.2C33.3,219,33,220.2,32.3,221.1"/>
					</g>
				</g>
				<g id="XMLID_1488_" class="st7">
					<defs>
						<path id="XMLID_1491_" class="st7" d="M29.3,217.1c-0.9-0.8-2.3-1.3-4-1.3l2.6-2.6c1.7,0,3.1,0.4,4,1.3
							C31,215.3,30.1,216.2,29.3,217.1z"/>
					</defs>
					<clipPath id="XMLID_257_">
						<use xlink:href="#XMLID_1491_"  style="overflow:visible;"/>
					</clipPath>
					<g id="XMLID_1489_" class="st24">
						<path id="XMLID_1490_" class="st13" d="M32.3,221.1l-2.6,2.6c0.7-0.9,1-2.1,1-3.4c0-1.3-0.5-2.3-1.5-3.2
							c-0.9-0.8-2.3-1.3-4-1.3l2.6-2.6c1.7,0,3.1,0.4,4,1.3c1,0.9,1.5,1.9,1.5,3.2C33.3,219,33,220.2,32.3,221.1"/>
					</g>
				</g>
				<g id="XMLID_1486_">
					<polygon id="XMLID_1487_" class="st9" points="19.8,205.6 17.1,208.2 17.1,199.6 19.7,197 					"/>
				</g>
				<g id="XMLID_1484_">
					<polygon id="XMLID_1485_" class="st9" points="27.4,205.6 24.8,208.2 17.1,208.2 19.8,205.6 					"/>
				</g>
				<g id="XMLID_1480_" class="st7">
					<defs>
						<path id="XMLID_1483_" class="st7" d="M40.6,230c-0.6,0.6-1.2,1.1-1.9,1.5c0.1-0.1,0.2-0.2,0.3-0.3c0.1-0.1,0.2-0.2,0.3-0.3
							c0.1-0.1,0.2-0.2,0.3-0.3c0.1-0.1,0.2-0.2,0.3-0.3s0.2-0.2,0.3-0.3c0.1-0.1,0.2-0.2,0.3-0.3c0.1-0.1,0.2-0.2,0.3-0.3
							c0.1-0.1,0.2-0.2,0.3-0.3c0.7-0.4,1.3-0.9,1.9-1.5C42.4,228.1,41.4,229.2,40.6,230z"/>
					</defs>
					<clipPath id="XMLID_258_">
						<use xlink:href="#XMLID_1483_"  style="overflow:visible;"/>
					</clipPath>
					<g id="XMLID_1481_" class="st25">
						<path id="XMLID_1482_" class="st13" d="M43.2,227.4l-2.6,2.6c-0.6,0.6-1.2,1.1-1.9,1.5c-1.5,0.9-3.1,1.6-4.6,2
							c-1.5,0.4-3.1,0.6-4.8,0.6l2.6-2.6c1.7,0,3.3-0.2,4.8-0.6c1.5-0.4,3-1.1,4.6-2C42,228.4,42.6,227.9,43.2,227.4"/>
					</g>
				</g>
				<g id="XMLID_1476_" class="st7">
					<defs>
						<path id="XMLID_1479_" class="st7" d="M29.7,223.7c0.7-0.9,1-2.1,1-3.4c0.9-0.9,1.7-1.7,2.6-2.6c0,1.4-0.3,2.5-1,3.4
							C31.5,221.9,30.5,222.9,29.7,223.7z"/>
					</defs>
					<clipPath id="XMLID_259_">
						<use xlink:href="#XMLID_1479_"  style="overflow:visible;"/>
					</clipPath>
					<g id="XMLID_1477_" class="st26">
						<path id="XMLID_1478_" class="st13" d="M32.3,221.1l-2.6,2.6c0.7-0.9,1-2.1,1-3.4c0-1.3-0.5-2.3-1.5-3.2
							c-0.9-0.8-2.3-1.3-4-1.3l2.6-2.6c1.7,0,3.1,0.4,4,1.3c1,0.9,1.5,1.9,1.5,3.2C33.3,219,33,220.2,32.3,221.1"/>
					</g>
				</g>
				<g id="XMLID_1472_" class="st7">
					<defs>
						<path id="XMLID_1475_" class="st7" d="M31.5,220.5l-2.6,2.6c0.6-0.7,0.8-1.7,0.8-2.8c0-1-0.4-1.8-1.1-2.5
							c-0.8-0.7-1.9-1-3.4-1l2.6-2.6c1.5,0,2.6,0.3,3.4,1c0.7,0.7,1.1,1.5,1.1,2.5C32.3,218.8,32,219.8,31.5,220.5z"/>
					</defs>
					<clipPath id="XMLID_260_">
						<use xlink:href="#XMLID_1475_"  style="overflow:visible;"/>
					</clipPath>
					<g id="XMLID_1473_" class="st27">
						<path id="XMLID_1474_" class="st9" d="M31.5,220.5l-2.6,2.6c0.6-0.7,0.8-1.7,0.8-2.8c0-1-0.4-1.8-1.1-2.5
							c-0.8-0.7-1.9-1-3.4-1l2.6-2.6c1.5,0,2.6,0.3,3.4,1c0.7,0.7,1.1,1.5,1.1,2.5C32.3,218.8,32,219.8,31.5,220.5"/>
					</g>
				</g>
				<g id="XMLID_1468_" class="st7">
					<defs>
						<path id="XMLID_1471_" class="st7" d="M29.3,224.1c0.1-0.1,0.2-0.3,0.4-0.4l2.6-2.6c-0.1,0.1-0.2,0.3-0.4,0.4
							C31.1,222.3,30.1,223.3,29.3,224.1z"/>
					</defs>
					<clipPath id="XMLID_261_">
						<use xlink:href="#XMLID_1471_"  style="overflow:visible;"/>
					</clipPath>
					<g id="XMLID_1469_" class="st28">
						<path id="XMLID_1470_" class="st13" d="M31.9,221.5l-2.6,2.6c0.1-0.1,0.2-0.3,0.4-0.4l2.6-2.6
							C32.2,221.2,32.1,221.4,31.9,221.5"/>
					</g>
				</g>
				<g id="XMLID_1464_" class="st7">
					<defs>
						<path id="XMLID_1467_" class="st7" d="M31.2,220.8l-2.6,2.6c0.1-0.1,0.2-0.2,0.3-0.3l2.6-2.6
							C31.4,220.6,31.3,220.7,31.2,220.8z"/>
					</defs>
					<clipPath id="XMLID_262_">
						<use xlink:href="#XMLID_1467_"  style="overflow:visible;"/>
					</clipPath>
					<g id="XMLID_1465_" class="st29">
						<path id="XMLID_1466_" class="st9" d="M31.2,220.8l-2.6,2.6c0.1-0.1,0.2-0.2,0.3-0.3l2.6-2.6
							C31.4,220.6,31.3,220.7,31.2,220.8"/>
					</g>
				</g>
				<g id="XMLID_1460_" class="st7">
					<defs>
						<path id="XMLID_1463_" class="st7" d="M31.9,221.5l-2.6,2.6c-0.7,0.7-1.6,1-2.6,1l2.6-2.6C30.4,222.5,31.2,222.2,31.9,221.5z"
							/>
					</defs>
					<clipPath id="XMLID_263_">
						<use xlink:href="#XMLID_1463_"  style="overflow:visible;"/>
					</clipPath>
					<g id="XMLID_1461_" class="st30">
						<path id="XMLID_1462_" class="st9" d="M31.9,221.5l-2.6,2.6c-0.7,0.7-1.6,1-2.6,1l2.6-2.6C30.4,222.5,31.2,222.2,31.9,221.5"
							/>
					</g>
				</g>
				<g id="XMLID_1458_">
					<polygon id="XMLID_1459_" class="st15" points="27.8,213.2 25.2,215.8 17.2,215.8 19.8,213.2 					"/>
				</g>
				<g id="XMLID_1456_">
					<polygon id="XMLID_1457_" class="st9" points="27.8,214.2 25.2,216.8 18.2,216.8 20.8,214.2 					"/>
				</g>
				<g id="XMLID_1454_">
					<polygon id="XMLID_1455_" class="st9" points="29.3,222.5 26.7,225.2 17.2,225.2 19.8,222.5 					"/>
				</g>
				<g id="XMLID_1452_">
					<polygon id="XMLID_1453_" class="st9" points="19.8,222.5 17.2,225.2 17.2,215.8 19.8,213.2 					"/>
				</g>
				<g id="XMLID_1447_">
					<path id="XMLID_1448_" class="st31" d="M44.9,212.9c1.1,2,1.7,4.2,1.7,6.5c0,1.9-0.5,3.7-1.5,5.4c-1,1.7-2.3,3.1-3.8,4
						c-1.5,0.9-3.1,1.6-4.6,2c-1.5,0.4-3.1,0.6-4.8,0.6H6.5l-0.1-44h26.3c3.2,0,5.9,0.9,8.2,2.7c2.3,1.8,3.6,4.2,3.9,7.2
						c0,2-0.4,4-1.2,5.7c-0.8,1.8-2,3.2-3.6,4.4l-0.7,0.5l0.7,0.4C42.2,209.4,43.8,211,44.9,212.9z M32.3,221.1c0.7-0.9,1-2.1,1-3.4
						c0-1.3-0.5-2.3-1.5-3.2c-0.9-0.8-2.3-1.3-4-1.3h-8.1l0,9.4h9.5C30.6,222.5,31.6,222.1,32.3,221.1 M19.7,197l0,8.6h7.6
						c1.3,0,2.5-0.5,3.6-1.4c1.1-0.9,1.7-1.9,1.7-2.8c0-1.3-0.3-2.3-0.9-3.2c-0.6-0.9-1.5-1.3-2.6-1.3H19.7"/>
				</g>
				<g id="XMLID_1443_" class="st7">
					<defs>
						<path id="XMLID_1446_" class="st7" d="M38.7,231.4c-1.5,0.9-3.1,1.6-4.6,2c0.1-0.1,0.2-0.2,0.3-0.3c0.1-0.1,0.2-0.2,0.3-0.3
							c0.2-0.2,0.5-0.5,0.7-0.7c0.1-0.1,0.2-0.2,0.3-0.3c0.1-0.1,0.2-0.2,0.3-0.3c0.1-0.1,0.2-0.2,0.3-0.3c0.1-0.1,0.2-0.2,0.3-0.3
							c1.5-0.4,3-1.1,4.6-2C40.5,229.7,39.6,230.6,38.7,231.4z"/>
					</defs>
					<clipPath id="XMLID_264_">
						<use xlink:href="#XMLID_1446_"  style="overflow:visible;"/>
					</clipPath>
					<g id="XMLID_1444_" class="st32">
						<path id="XMLID_1445_" class="st13" d="M43.2,227.4l-2.6,2.6c-0.6,0.6-1.2,1.1-1.9,1.5c-1.5,0.9-3.1,1.6-4.6,2
							c-1.5,0.4-3.1,0.6-4.8,0.6l2.6-2.6c1.7,0,3.3-0.2,4.8-0.6c1.5-0.4,3-1.1,4.6-2C42,228.4,42.6,227.9,43.2,227.4"/>
					</g>
				</g>
				<g id="XMLID_1439_" class="st7">
					<defs>
						<path id="XMLID_1442_" class="st7" d="M34.2,233.4c-1.5,0.4-3.1,0.6-4.8,0.6l2.6-2.6c1.7,0,3.3-0.2,4.8-0.6
							C35.9,231.7,35.1,232.6,34.2,233.4z"/>
					</defs>
					<clipPath id="XMLID_265_">
						<use xlink:href="#XMLID_1442_"  style="overflow:visible;"/>
					</clipPath>
					<g id="XMLID_1440_" class="st33">
						<path id="XMLID_1441_" class="st13" d="M43.2,227.4l-2.6,2.6c-0.6,0.6-1.2,1.1-1.9,1.5c-1.5,0.9-3.1,1.6-4.6,2
							c-1.5,0.4-3.1,0.6-4.8,0.6l2.6-2.6c1.7,0,3.3-0.2,4.8-0.6c1.5-0.4,3-1.1,4.6-2C42,228.4,42.6,227.9,43.2,227.4"/>
					</g>
				</g>
				<g id="XMLID_1435_" class="st7">
					<defs>
						<path id="XMLID_1438_" class="st7" d="M43.9,228.1l-2.6,2.6c-0.6,0.6-1.3,1.2-2.1,1.6c-1.6,1-3.2,1.7-4.8,2.1
							c-1.6,0.4-3.3,0.7-5.1,0.7l2.6-2.6c1.8,0,3.5-0.2,5.1-0.7c1.6-0.4,3.2-1.1,4.8-2.1C42.6,229.2,43.3,228.7,43.9,228.1z"/>
					</defs>
					<clipPath id="XMLID_266_">
						<use xlink:href="#XMLID_1438_"  style="overflow:visible;"/>
					</clipPath>
					<g id="XMLID_1436_" class="st34">
						<path id="XMLID_1437_" class="st9" d="M43.9,228.1l-2.6,2.6c-0.6,0.6-1.3,1.2-2.1,1.6c-1.6,1-3.2,1.7-4.8,2.1
							c-1.6,0.4-3.3,0.7-5.1,0.7l2.6-2.6c1.8,0,3.5-0.2,5.1-0.7c1.6-0.4,3.2-1.1,4.8-2.1C42.6,229.2,43.3,228.7,43.9,228.1"/>
					</g>
				</g>
				<g id="XMLID_1431_">
					<path id="XMLID_1432_" class="st35" d="M31.9,214.5c1,0.9,1.5,1.9,1.5,3.2c0,1.4-0.3,2.5-1,3.4c-0.7,1-1.7,1.4-3,1.4h-9.5
						l0-9.4h8.1C29.6,213.2,30.9,213.6,31.9,214.5z M31.5,220.5c0.6-0.7,0.8-1.7,0.8-2.8c0-1-0.4-1.8-1.1-2.5c-0.8-0.7-1.9-1-3.4-1
						h-7l0,7.4h8.5C30.2,221.5,31,221.2,31.5,220.5"/>
				</g>
				<g id="XMLID_1429_">
					<polygon id="XMLID_1430_" class="st15" points="32,231.4 29.4,234.1 3.9,234.1 6.5,231.4 					"/>
				</g>
				<g id="XMLID_1427_">
					<polygon id="XMLID_1428_" class="st15" points="6.5,231.4 3.9,234.1 3.8,190.1 6.4,187.4 					"/>
				</g>
				<g id="XMLID_1423_">
					<path id="XMLID_1424_" class="st35" d="M45.8,212.4c1.2,2.1,1.8,4.5,1.8,7c0,2-0.5,4.1-1.6,5.9c-1.1,1.9-2.5,3.3-4.1,4.3
						c-1.6,1-3.2,1.7-4.8,2.1c-1.6,0.4-3.3,0.7-5.1,0.7H5.5l-0.1-46h27.3c3.4,0,6.4,1,8.8,2.9c2.5,2,3.9,4.6,4.3,8
						c0,2.2-0.4,4.3-1.3,6.2c-0.8,1.7-1.9,3.1-3.3,4.3C43.2,209,44.7,210.5,45.8,212.4z M45.1,224.9c1-1.7,1.5-3.6,1.5-5.4
						c0-2.3-0.6-4.5-1.7-6.5c-1.1-2-2.7-3.5-4.8-4.6l-0.7-0.4l0.7-0.5c1.6-1.2,2.8-2.6,3.6-4.4c0.8-1.8,1.2-3.7,1.2-5.7
						c-0.3-3-1.6-5.4-3.9-7.2c-2.3-1.8-5.1-2.7-8.2-2.7H6.4l0.1,44H32c1.7,0,3.3-0.2,4.8-0.6c1.5-0.4,3-1.1,4.6-2
						C42.8,227.9,44.1,226.6,45.1,224.9"/>
				</g>
				<g id="XMLID_1419_">
					<path id="XMLID_1420_" class="st35" d="M31,204.3c-1.1,0.9-2.3,1.4-3.6,1.4h-7.6l0-8.6h9.5c1.1,0,2,0.4,2.6,1.3
						c0.6,0.8,0.9,1.9,0.9,3.2C32.7,202.4,32.1,203.3,31,204.3z M20.7,198l0,6.6h6.6c1.1,0,2-0.4,2.9-1.1c0.9-0.7,1.3-1.4,1.3-2
						c0-1.1-0.2-1.9-0.7-2.6c-0.4-0.6-1-0.9-1.8-0.9H20.7"/>
				</g>
				<g id="XMLID_1417_">
					<polygon id="XMLID_1418_" class="st9" points="5.5,232.4 2.9,235.1 2.8,189.1 5.4,186.4 					"/>
				</g>
				<g id="XMLID_1415_">
					<polygon id="XMLID_1416_" class="st9" points="32,232.4 29.4,235.1 2.9,235.1 5.5,232.4 					"/>
				</g>
			</g>
			<g id="XMLID_1375_" class="st7">
				<g id="XMLID_1412_">
					<polygon id="XMLID_1413_" class="st9" points="92,197.2 89.4,199.8 89.4,190.1 92,187.4 					"/>
				</g>
				<g id="XMLID_1410_">
					<polygon id="XMLID_1411_" class="st9" points="88.7,213.7 86.1,216.3 86.1,206.9 88.7,204.3 					"/>
				</g>
				<g id="XMLID_1408_">
					<polygon id="XMLID_1409_" class="st15" points="92,197.2 89.4,199.8 67.2,199.8 69.9,197.2 					"/>
				</g>
				<g id="XMLID_1406_">
					<polygon id="XMLID_1407_" class="st9" points="93,198.2 90.4,200.8 68.2,200.8 70.9,198.2 					"/>
				</g>
				<g id="XMLID_1404_">
					<polygon id="XMLID_1405_" class="st9" points="92,187.4 89.4,190.1 54,190.1 56.6,187.4 					"/>
				</g>
				<g id="XMLID_1402_">
					<polygon id="XMLID_1403_" class="st9" points="88.7,204.3 86.1,206.9 67.3,206.9 69.9,204.3 					"/>
				</g>
				<g id="XMLID_1400_">
					<polygon id="XMLID_1401_" class="st9" points="69.9,204.3 67.3,206.9 67.2,199.8 69.9,197.2 					"/>
				</g>
				<g id="XMLID_1398_">
					<polygon id="XMLID_1399_" class="st9" points="93,231.4 90.4,234.1 90.4,224.3 93,221.7 					"/>
				</g>
				<g id="XMLID_1396_">
					<polygon id="XMLID_1397_" class="st15" points="88.7,213.7 86.1,216.3 67.3,216.3 69.9,213.7 					"/>
				</g>
				<g id="XMLID_1394_">
					<polygon id="XMLID_1395_" class="st9" points="89.7,214.7 87.1,217.3 68.3,217.3 70.9,214.7 					"/>
				</g>
				<g id="XMLID_1392_">
					<polygon id="XMLID_1393_" class="st9" points="93,221.7 90.4,224.3 67.3,224.3 69.9,221.7 					"/>
				</g>
				<g id="XMLID_1390_">
					<polygon id="XMLID_1391_" class="st9" points="69.9,221.7 67.3,224.3 67.3,216.3 69.9,213.7 					"/>
				</g>
				<g id="XMLID_1388_">
					<polygon id="XMLID_1389_" class="st15" points="93,231.4 90.4,234.1 54.1,234.1 56.7,231.4 					"/>
				</g>
				<g id="XMLID_1386_">
					<polygon id="XMLID_1387_" class="st15" points="56.7,231.4 54.1,234.1 54,190.1 56.6,187.4 					"/>
				</g>
				<g id="XMLID_1384_">
					<polygon id="XMLID_1385_" class="st31" points="92,187.4 92,197.2 69.9,197.2 69.9,204.3 88.7,204.3 88.7,213.7 69.9,213.7 
						69.9,221.7 93,221.7 93,231.4 56.7,231.4 56.6,187.4 					"/>
				</g>
				<g id="XMLID_1380_">
					<path id="XMLID_1381_" class="st35" d="M70.9,220.7h23l0,11.8H55.7l-0.1-46H93l0,11.8H70.9l0,5.1h18.8l0,11.4H70.9L70.9,220.7z
						 M93,231.4l0-9.8h-23l0-7.9h18.8l0-9.4H69.9l0-7.1H92l0-9.8H56.6l0.1,44H93"/>
				</g>
				<g id="XMLID_1378_">
					<polygon id="XMLID_1379_" class="st9" points="94,232.4 91.4,235.1 53.1,235.1 55.7,232.4 					"/>
				</g>
				<g id="XMLID_1376_">
					<polygon id="XMLID_1377_" class="st9" points="55.7,232.4 53.1,235.1 53,189.1 55.6,186.4 					"/>
				</g>
			</g>
			<g id="XMLID_1338_" class="st7">
				<g id="XMLID_1373_">
					<polygon id="XMLID_1374_" class="st9" points="144.8,187.4 142.2,190.1 129.4,190.1 132,187.4 					"/>
				</g>
				<g id="XMLID_1371_">
					<polygon id="XMLID_1372_" class="st15" points="132.1,212.3 129.5,215 129.4,190.1 132,187.4 					"/>
				</g>
				<g id="XMLID_1369_">
					<polygon id="XMLID_1370_" class="st9" points="131.1,209 128.5,211.6 128.4,189.1 131,186.4 					"/>
				</g>
				<g id="XMLID_1367_">
					<polygon id="XMLID_1368_" class="st9" points="132.1,212.3 129.5,215 113.2,190.1 115.8,187.4 					"/>
				</g>
				<g id="XMLID_1365_">
					<polygon id="XMLID_1366_" class="st9" points="115.8,187.4 113.2,190.1 100.2,190.1 102.8,187.4 					"/>
				</g>
				<g id="XMLID_1363_">
					<polygon id="XMLID_1364_" class="st9" points="144.9,231.4 142.3,234.1 142.2,190.1 144.8,187.4 					"/>
				</g>
				<g id="XMLID_1361_">
					<polygon id="XMLID_1362_" class="st15" points="144.9,231.4 142.3,234.1 129,234.1 131.6,231.4 					"/>
				</g>
				<g id="XMLID_1359_">
					<polygon id="XMLID_1360_" class="st15" points="131.6,231.4 129,234.1 113,209.4 115.6,206.8 					"/>
				</g>
				<g id="XMLID_1357_">
					<polygon id="XMLID_1358_" class="st9" points="131.1,232.4 128.5,235.1 114,212.8 116.6,210.2 					"/>
				</g>
				<g id="XMLID_1355_">
					<polygon id="XMLID_1356_" class="st9" points="145.9,232.4 143.3,235.1 128.5,235.1 131.1,232.4 					"/>
				</g>
				<g id="XMLID_1353_">
					<polygon id="XMLID_1354_" class="st9" points="115.7,231.4 113.1,234.1 113,209.4 115.6,206.8 					"/>
				</g>
				<g id="XMLID_1351_">
					<polygon id="XMLID_1352_" class="st15" points="115.7,231.4 113.1,234.1 100.3,234.1 103,231.4 					"/>
				</g>
				<g id="XMLID_1349_">
					<polygon id="XMLID_1350_" class="st15" points="103,231.4 100.3,234.1 100.2,190.1 102.8,187.4 					"/>
				</g>
				<g id="XMLID_1347_">
					<polygon id="XMLID_1348_" class="st31" points="144.8,187.4 144.9,231.4 131.6,231.4 115.6,206.8 115.7,231.4 103,231.4 
						102.8,187.4 115.8,187.4 132.1,212.3 132,187.4 					"/>
				</g>
				<g id="XMLID_1343_">
					<path id="XMLID_1344_" class="st35" d="M131,186.4h14.8l0.1,46h-14.9l-14.5-22.3l0.1,22.3H102l-0.1-46h14.5l14.7,22.5
						L131,186.4z M144.9,231.4l-0.1-44H132l0.1,24.9l-16.3-24.9h-13l0.1,44h12.7l-0.1-24.6l16,24.6H144.9"/>
				</g>
				<g id="XMLID_1341_">
					<polygon id="XMLID_1342_" class="st9" points="116.7,232.4 114.1,235.1 99.3,235.1 102,232.4 					"/>
				</g>
				<g id="XMLID_1339_">
					<polygon id="XMLID_1340_" class="st9" points="102,232.4 99.3,235.1 99.2,189.1 101.8,186.4 					"/>
				</g>
			</g>
			<g id="XMLID_1202_" class="st7">
				<g id="XMLID_1334_" class="st7">
					<defs>
						<path id="XMLID_1337_" class="st7" d="M224.6,197.4L222,200c-0.3-3-1.6-5.4-3.9-7.2c-2.3-1.8-5.1-2.7-8.2-2.7l2.6-2.6
							c3.1,0,5.9,0.9,8.2,2.7C223,192,224.3,194.4,224.6,197.4z"/>
					</defs>
					<clipPath id="XMLID_267_">
						<use xlink:href="#XMLID_1337_"  style="overflow:visible;"/>
					</clipPath>
					<g id="XMLID_1335_" class="st36">
						<path id="XMLID_1336_" class="st9" d="M224.6,197.4L222,200c-0.3-3-1.6-5.4-3.9-7.2c-2.3-1.8-5.1-2.7-8.2-2.7l2.6-2.6
							c3.1,0,5.9,0.9,8.2,2.7C223,192,224.3,194.4,224.6,197.4"/>
					</g>
				</g>
				<g id="XMLID_1330_" class="st7">
					<defs>
						<path id="XMLID_1333_" class="st7" d="M221.3,206.3l-2.6,2.6c0.9-0.9,1.6-2,2.2-3.1c0.8-1.8,1.2-3.7,1.2-5.7l2.6-2.6
							c0,2-0.4,4-1.2,5.7C222.9,204.3,222.2,205.3,221.3,206.3z"/>
					</defs>
					<clipPath id="XMLID_268_">
						<use xlink:href="#XMLID_1333_"  style="overflow:visible;"/>
					</clipPath>
					<g id="XMLID_1331_" class="st37">
						<path id="XMLID_1332_" class="st9" d="M221.3,206.3l-2.6,2.6c0.9-0.9,1.6-2,2.2-3.1c0.8-1.8,1.2-3.7,1.2-5.7l2.6-2.6
							c0,2-0.4,4-1.2,5.7C222.9,204.3,222.2,205.3,221.3,206.3"/>
					</g>
				</g>
				<g id="XMLID_1326_" class="st7">
					<defs>
						<path id="XMLID_1329_" class="st7" d="M221.3,206.3l-2.6,2.6c-0.4,0.4-0.9,0.9-1.5,1.2l2.6-2.6
							C220.3,207.1,220.8,206.7,221.3,206.3z"/>
					</defs>
					<clipPath id="XMLID_269_">
						<use xlink:href="#XMLID_1329_"  style="overflow:visible;"/>
					</clipPath>
					<g id="XMLID_1327_" class="st38">
						<path id="XMLID_1328_" class="st13" d="M221.3,206.3l-2.6,2.6c-0.4,0.4-0.9,0.9-1.5,1.2l2.6-2.6
							C220.3,207.1,220.8,206.7,221.3,206.3"/>
					</g>
				</g>
				<g id="XMLID_1322_" class="st7">
					<defs>
						<path id="XMLID_1325_" class="st7" d="M208.9,201c-0.6-0.9-1.5-1.3-2.6-1.3l2.6-2.6c1.1,0,2,0.4,2.6,1.3
							C210.7,199.2,209.8,200.1,208.9,201z"/>
					</defs>
					<clipPath id="XMLID_270_">
						<use xlink:href="#XMLID_1325_"  style="overflow:visible;"/>
					</clipPath>
					<g id="XMLID_1323_" class="st39">
						<path id="XMLID_1324_" class="st13" d="M211.3,203.8l-2.6,2.6c0.8-0.8,1.1-1.5,1.1-2.3c0-1.3-0.3-2.3-0.9-3.2
							c-0.6-0.9-1.5-1.3-2.6-1.3l2.6-2.6c1.1,0,2,0.4,2.6,1.3c0.6,0.8,0.9,1.9,0.9,3.2C212.4,202.3,212.1,203,211.3,203.8"/>
					</g>
				</g>
				<g id="XMLID_1320_">
					<polygon id="XMLID_1321_" class="st15" points="219.8,207.5 217.2,210.1 216.5,210.6 219.1,208 					"/>
				</g>
				<g id="XMLID_1318_">
					<polygon id="XMLID_1319_" class="st9" points="219.9,208.3 217.3,211 216.5,210.6 219.1,208 					"/>
				</g>
				<g id="XMLID_1314_" class="st7">
					<defs>
						<path id="XMLID_1317_" class="st7" d="M209.8,204.1c0-1.3-0.3-2.3-0.9-3.2c0.1-0.1,0.2-0.2,0.3-0.3c0.1-0.1,0.2-0.2,0.3-0.3
							c0.2-0.2,0.5-0.5,0.7-0.7c0.1-0.1,0.2-0.2,0.3-0.3c0.1-0.1,0.2-0.2,0.3-0.3c0.1-0.1,0.2-0.2,0.3-0.3c0.1-0.1,0.2-0.2,0.3-0.3
							c0.6,0.8,0.9,1.9,0.9,3.2C211.6,202.4,210.7,203.2,209.8,204.1z"/>
					</defs>
					<clipPath id="XMLID_271_">
						<use xlink:href="#XMLID_1317_"  style="overflow:visible;"/>
					</clipPath>
					<g id="XMLID_1315_" class="st40">
						<path id="XMLID_1316_" class="st13" d="M211.3,203.8l-2.6,2.6c0.8-0.8,1.1-1.5,1.1-2.3c0-1.3-0.3-2.3-0.9-3.2
							c-0.6-0.9-1.5-1.3-2.6-1.3l2.6-2.6c1.1,0,2,0.4,2.6,1.3c0.6,0.8,0.9,1.9,0.9,3.2C212.4,202.3,212.1,203,211.3,203.8"/>
					</g>
				</g>
				<g id="XMLID_1310_" class="st7">
					<defs>
						<path id="XMLID_1313_" class="st7" d="M208.7,206.4c0.8-0.8,1.1-1.5,1.1-2.3c0.1-0.1,0.2-0.2,0.3-0.3c0.1-0.1,0.2-0.2,0.3-0.3
							c0.1-0.1,0.2-0.2,0.3-0.3c0.1-0.1,0.2-0.2,0.3-0.3c0.1-0.1,0.2-0.2,0.3-0.3c0.1-0.1,0.2-0.2,0.3-0.3c0.1-0.1,0.2-0.2,0.3-0.3
							c0.1-0.1,0.2-0.2,0.3-0.3c0,0.8-0.4,1.5-1.1,2.3C210.5,204.6,209.5,205.6,208.7,206.4z"/>
					</defs>
					<clipPath id="XMLID_272_">
						<use xlink:href="#XMLID_1313_"  style="overflow:visible;"/>
					</clipPath>
					<g id="XMLID_1311_" class="st41">
						<path id="XMLID_1312_" class="st13" d="M211.3,203.8l-2.6,2.6c0.8-0.8,1.1-1.5,1.1-2.3c0-1.3-0.3-2.3-0.9-3.2
							c-0.6-0.9-1.5-1.3-2.6-1.3l2.6-2.6c1.1,0,2,0.4,2.6,1.3c0.6,0.8,0.9,1.9,0.9,3.2C212.4,202.3,212.1,203,211.3,203.8"/>
					</g>
				</g>
				<g id="XMLID_1306_" class="st7">
					<defs>
						<path id="XMLID_1309_" class="st7" d="M210.6,203.1l-2.6,2.6c0.6-0.6,0.8-1.1,0.8-1.6c0-1.1-0.2-1.9-0.7-2.6
							c-0.4-0.6-1-0.9-1.8-0.9l2.6-2.6c0.8,0,1.4,0.3,1.8,0.9c0.5,0.6,0.7,1.5,0.7,2.6C211.4,202,211.1,202.5,210.6,203.1z"/>
					</defs>
					<clipPath id="XMLID_273_">
						<use xlink:href="#XMLID_1309_"  style="overflow:visible;"/>
					</clipPath>
					<g id="XMLID_1307_" class="st42">
						<path id="XMLID_1308_" class="st9" d="M210.6,203.1l-2.6,2.6c0.6-0.6,0.8-1.1,0.8-1.6c0-1.1-0.2-1.9-0.7-2.6
							c-0.4-0.6-1-0.9-1.8-0.9l2.6-2.6c0.8,0,1.4,0.3,1.8,0.9c0.5,0.6,0.7,1.5,0.7,2.6C211.4,202,211.1,202.5,210.6,203.1"/>
					</g>
				</g>
				<g id="XMLID_1302_" class="st7">
					<defs>
						<path id="XMLID_1305_" class="st7" d="M211.3,203.8l-2.6,2.6c-0.2,0.2-0.4,0.3-0.6,0.5l2.6-2.6
							C210.9,204.1,211.1,203.9,211.3,203.8z"/>
					</defs>
					<clipPath id="XMLID_274_">
						<use xlink:href="#XMLID_1305_"  style="overflow:visible;"/>
					</clipPath>
					<g id="XMLID_1303_" class="st43">
						<path id="XMLID_1304_" class="st9" d="M211.3,203.8l-2.6,2.6c-0.2,0.2-0.4,0.3-0.6,0.5l2.6-2.6
							C210.9,204.1,211.1,203.9,211.3,203.8"/>
					</g>
				</g>
				<g id="XMLID_1300_">
					<polygon id="XMLID_1301_" class="st15" points="209,197 206.3,199.6 196.9,199.6 199.5,197 					"/>
				</g>
				<g id="XMLID_1298_">
					<polygon id="XMLID_1299_" class="st9" points="209,198 206.3,200.6 197.9,200.6 200.5,198 					"/>
				</g>
				<g id="XMLID_1294_" class="st7">
					<defs>
						<path id="XMLID_1297_" class="st7" d="M210.7,204.3l-2.6,2.6c-1.1,0.9-2.3,1.4-3.6,1.4l2.6-2.6
							C208.4,205.6,209.6,205.2,210.7,204.3z"/>
					</defs>
					<clipPath id="XMLID_275_">
						<use xlink:href="#XMLID_1297_"  style="overflow:visible;"/>
					</clipPath>
					<g id="XMLID_1295_" class="st44">
						<path id="XMLID_1296_" class="st9" d="M210.7,204.3l-2.6,2.6c-1.1,0.9-2.3,1.4-3.6,1.4l2.6-2.6
							C208.4,205.6,209.6,205.2,210.7,204.3"/>
					</g>
				</g>
				<g id="XMLID_1290_" class="st7">
					<defs>
						<path id="XMLID_1293_" class="st7" d="M224.9,224.9l-2.6,2.6c1-1.7,1.5-3.6,1.5-5.4c0-2.3-0.6-4.5-1.7-6.5
							c-1.1-2-2.7-3.5-4.8-4.6l2.6-2.6c2.1,1.1,3.7,2.6,4.8,4.6c1.1,2,1.7,4.2,1.7,6.5C226.4,221.3,225.9,223.1,224.9,224.9z"/>
					</defs>
					<clipPath id="XMLID_276_">
						<use xlink:href="#XMLID_1293_"  style="overflow:visible;"/>
					</clipPath>
					<g id="XMLID_1291_" class="st45">
						<path id="XMLID_1292_" class="st9" d="M224.9,224.9l-2.6,2.6c1-1.7,1.5-3.6,1.5-5.4c0-2.3-0.6-4.5-1.7-6.5
							c-1.1-2-2.7-3.5-4.8-4.6l2.6-2.6c2.1,1.1,3.7,2.6,4.8,4.6c1.1,2,1.7,4.2,1.7,6.5C226.4,221.3,225.9,223.1,224.9,224.9"/>
					</g>
				</g>
				<g id="XMLID_1288_">
					<polygon id="XMLID_1289_" class="st9" points="212.5,187.4 209.9,190.1 183.6,190.1 186.2,187.4 					"/>
				</g>
				<g id="XMLID_1284_" class="st7">
					<defs>
						<path id="XMLID_1287_" class="st7" d="M223,227.4l-2.6,2.6c0.7-0.7,1.3-1.5,1.9-2.5l2.6-2.6
							C224.3,225.8,223.7,226.6,223,227.4z"/>
					</defs>
					<clipPath id="XMLID_277_">
						<use xlink:href="#XMLID_1287_"  style="overflow:visible;"/>
					</clipPath>
					<g id="XMLID_1285_" class="st46">
						<path id="XMLID_1286_" class="st9" d="M223,227.4l-2.6,2.6c0.7-0.7,1.3-1.5,1.9-2.5l2.6-2.6
							C224.3,225.8,223.7,226.6,223,227.4"/>
					</g>
				</g>
				<g id="XMLID_1280_" class="st7">
					<defs>
						<path id="XMLID_1283_" class="st7" d="M210.5,220.3c0-1.3-0.5-2.3-1.5-3.2c0.1-0.1,0.2-0.2,0.3-0.3c0.1-0.1,0.2-0.2,0.3-0.3
							c0.1-0.1,0.2-0.2,0.3-0.3c0.1-0.1,0.2-0.2,0.3-0.3c0.1-0.1,0.2-0.2,0.3-0.3c0.1-0.1,0.2-0.2,0.3-0.3c0.1-0.1,0.2-0.2,0.3-0.3
							c0.1-0.1,0.2-0.2,0.3-0.3c1,0.9,1.5,1.9,1.5,3.2C212.2,218.5,211.3,219.4,210.5,220.3z"/>
					</defs>
					<clipPath id="XMLID_278_">
						<use xlink:href="#XMLID_1283_"  style="overflow:visible;"/>
					</clipPath>
					<g id="XMLID_1281_" class="st47">
						<path id="XMLID_1282_" class="st13" d="M212,221.1l-2.6,2.6c0.7-0.9,1-2.1,1-3.4c0-1.3-0.5-2.3-1.5-3.2
							c-0.9-0.8-2.3-1.3-4-1.3l2.6-2.6c1.7,0,3.1,0.4,4,1.3c1,0.9,1.5,1.9,1.5,3.2C213.1,219,212.7,220.2,212,221.1"/>
					</g>
				</g>
				<g id="XMLID_1276_" class="st7">
					<defs>
						<path id="XMLID_1279_" class="st7" d="M209,217.1c-0.9-0.8-2.3-1.3-4-1.3l2.6-2.6c1.7,0,3.1,0.4,4,1.3
							C210.8,215.3,209.9,216.2,209,217.1z"/>
					</defs>
					<clipPath id="XMLID_279_">
						<use xlink:href="#XMLID_1279_"  style="overflow:visible;"/>
					</clipPath>
					<g id="XMLID_1277_" class="st48">
						<path id="XMLID_1278_" class="st13" d="M212,221.1l-2.6,2.6c0.7-0.9,1-2.1,1-3.4c0-1.3-0.5-2.3-1.5-3.2
							c-0.9-0.8-2.3-1.3-4-1.3l2.6-2.6c1.7,0,3.1,0.4,4,1.3c1,0.9,1.5,1.9,1.5,3.2C213.1,219,212.7,220.2,212,221.1"/>
					</g>
				</g>
				<g id="XMLID_1272_">
					<path id="XMLID_1273_" class="st35" d="M210.7,204.3c-1.1,0.9-2.3,1.4-3.6,1.4h-7.6l0-8.6h9.5c1.1,0,2,0.4,2.6,1.3
						c0.6,0.8,0.9,1.9,0.9,3.2C212.4,202.4,211.9,203.3,210.7,204.3z M200.5,198l0,6.6h6.6c1.1,0,2-0.4,3-1.1c0.9-0.7,1.3-1.4,1.3-2
						c0-1.1-0.2-1.9-0.7-2.6c-0.4-0.6-1-0.9-1.8-0.9H200.5"/>
				</g>
				<g id="XMLID_1270_">
					<polygon id="XMLID_1271_" class="st9" points="199.5,205.6 196.9,208.2 196.9,199.6 199.5,197 					"/>
				</g>
				<g id="XMLID_1268_">
					<polygon id="XMLID_1269_" class="st9" points="207.2,205.6 204.5,208.2 196.9,208.2 199.5,205.6 					"/>
				</g>
				<g id="XMLID_1264_" class="st7">
					<defs>
						<path id="XMLID_1267_" class="st7" d="M220.4,230c-0.6,0.6-1.2,1.1-1.9,1.5c0.1-0.1,0.2-0.2,0.3-0.3c0.1-0.1,0.2-0.2,0.3-0.3
							c0.1-0.1,0.2-0.2,0.3-0.3c0.1-0.1,0.2-0.2,0.3-0.3c0.1-0.1,0.2-0.2,0.3-0.3c0.1-0.1,0.2-0.2,0.3-0.3c0.1-0.1,0.2-0.2,0.3-0.3
							c0.1-0.1,0.2-0.2,0.3-0.3c0.7-0.4,1.3-0.9,1.9-1.5C222.2,228.1,221.1,229.2,220.4,230z"/>
					</defs>
					<clipPath id="XMLID_280_">
						<use xlink:href="#XMLID_1267_"  style="overflow:visible;"/>
					</clipPath>
					<g id="XMLID_1265_" class="st49">
						<path id="XMLID_1266_" class="st13" d="M223,227.4l-2.6,2.6c-0.6,0.6-1.2,1.1-1.9,1.5c-1.5,0.9-3.1,1.6-4.6,2
							c-1.5,0.4-3.1,0.6-4.8,0.6l2.6-2.6c1.7,0,3.3-0.2,4.8-0.6c1.5-0.4,3-1.1,4.6-2C221.8,228.4,222.4,227.9,223,227.4"/>
					</g>
				</g>
				<g id="XMLID_1260_" class="st7">
					<defs>
						<path id="XMLID_1263_" class="st7" d="M209.4,223.7c0.7-0.9,1-2.1,1-3.4c0.9-0.9,1.7-1.7,2.6-2.6c0,1.4-0.3,2.5-1,3.4
							C211.3,221.9,210.2,222.9,209.4,223.7z"/>
					</defs>
					<clipPath id="XMLID_281_">
						<use xlink:href="#XMLID_1263_"  style="overflow:visible;"/>
					</clipPath>
					<g id="XMLID_1261_" class="st50">
						<path id="XMLID_1262_" class="st13" d="M212,221.1l-2.6,2.6c0.7-0.9,1-2.1,1-3.4c0-1.3-0.5-2.3-1.5-3.2
							c-0.9-0.8-2.3-1.3-4-1.3l2.6-2.6c1.7,0,3.1,0.4,4,1.3c1,0.9,1.5,1.9,1.5,3.2C213.1,219,212.7,220.2,212,221.1"/>
					</g>
				</g>
				<g id="XMLID_1256_" class="st7">
					<defs>
						<path id="XMLID_1259_" class="st7" d="M211.2,220.5l-2.6,2.6c0.6-0.7,0.8-1.7,0.8-2.8c0-1-0.4-1.8-1.1-2.5
							c-0.8-0.7-1.9-1-3.4-1l2.6-2.6c1.5,0,2.6,0.3,3.4,1c0.8,0.7,1.1,1.5,1.1,2.5C212.1,218.8,211.8,219.8,211.2,220.5z"/>
					</defs>
					<clipPath id="XMLID_282_">
						<use xlink:href="#XMLID_1259_"  style="overflow:visible;"/>
					</clipPath>
					<g id="XMLID_1257_" class="st51">
						<path id="XMLID_1258_" class="st9" d="M211.2,220.5l-2.6,2.6c0.6-0.7,0.8-1.7,0.8-2.8c0-1-0.4-1.8-1.1-2.5
							c-0.8-0.7-1.9-1-3.4-1l2.6-2.6c1.5,0,2.6,0.3,3.4,1c0.8,0.7,1.1,1.5,1.1,2.5C212.1,218.8,211.8,219.8,211.2,220.5"/>
					</g>
				</g>
				<g id="XMLID_1252_" class="st7">
					<defs>
						<path id="XMLID_1255_" class="st7" d="M211,220.8l-2.6,2.6c0.1-0.1,0.2-0.2,0.3-0.3l2.6-2.6
							C211.2,220.6,211.1,220.7,211,220.8z"/>
					</defs>
					<clipPath id="XMLID_283_">
						<use xlink:href="#XMLID_1255_"  style="overflow:visible;"/>
					</clipPath>
					<g id="XMLID_1253_" class="st52">
						<path id="XMLID_1254_" class="st9" d="M211,220.8l-2.6,2.6c0.1-0.1,0.2-0.2,0.3-0.3l2.6-2.6
							C211.2,220.6,211.1,220.7,211,220.8"/>
					</g>
				</g>
				<g id="XMLID_1248_" class="st7">
					<defs>
						<path id="XMLID_1251_" class="st7" d="M209.1,224.1c0.1-0.1,0.2-0.3,0.4-0.4l2.6-2.6c-0.1,0.2-0.2,0.3-0.4,0.4
							C210.9,222.3,209.8,223.4,209.1,224.1z"/>
					</defs>
					<clipPath id="XMLID_284_">
						<use xlink:href="#XMLID_1251_"  style="overflow:visible;"/>
					</clipPath>
					<g id="XMLID_1249_" class="st53">
						<path id="XMLID_1250_" class="st13" d="M211.7,221.5l-2.6,2.6c0.1-0.1,0.2-0.3,0.4-0.4l2.6-2.6
							C211.9,221.3,211.8,221.4,211.7,221.5"/>
					</g>
				</g>
				<g id="XMLID_1244_" class="st7">
					<defs>
						<path id="XMLID_1247_" class="st7" d="M211.7,221.5l-2.6,2.6c-0.7,0.7-1.5,1-2.6,1l2.6-2.6C210.1,222.5,211,222.2,211.7,221.5
							z"/>
					</defs>
					<clipPath id="XMLID_285_">
						<use xlink:href="#XMLID_1247_"  style="overflow:visible;"/>
					</clipPath>
					<g id="XMLID_1245_" class="st54">
						<path id="XMLID_1246_" class="st9" d="M211.7,221.5l-2.6,2.6c-0.7,0.7-1.5,1-2.6,1l2.6-2.6C210.1,222.5,211,222.2,211.7,221.5
							"/>
					</g>
				</g>
				<g id="XMLID_1242_">
					<polygon id="XMLID_1243_" class="st15" points="207.6,213.2 205,215.8 196.9,215.8 199.5,213.2 					"/>
				</g>
				<g id="XMLID_1240_">
					<polygon id="XMLID_1241_" class="st9" points="207.6,214.2 205,216.8 197.9,216.8 200.5,214.2 					"/>
				</g>
				<g id="XMLID_1236_" class="st7">
					<defs>
						<path id="XMLID_1239_" class="st7" d="M218.5,231.4c-1.5,0.9-3.1,1.6-4.6,2c0.9-0.9,1.7-1.7,2.6-2.6c1.5-0.4,3-1.1,4.6-2
							c-0.4,0.4-0.9,0.9-1.3,1.3c-0.1,0.1-0.1,0.1-0.2,0.2c-0.2,0.2-0.4,0.4-0.7,0.7c0,0-0.1,0.1-0.2,0.2
							C218.7,231.2,218.6,231.4,218.5,231.4z"/>
					</defs>
					<clipPath id="XMLID_286_">
						<use xlink:href="#XMLID_1239_"  style="overflow:visible;"/>
					</clipPath>
					<g id="XMLID_1237_" class="st55">
						<path id="XMLID_1238_" class="st13" d="M223,227.4l-2.6,2.6c-0.6,0.6-1.2,1.1-1.9,1.5c-1.5,0.9-3.1,1.6-4.6,2
							c-1.5,0.4-3.1,0.6-4.8,0.6l2.6-2.6c1.7,0,3.3-0.2,4.8-0.6c1.5-0.4,3-1.1,4.6-2C221.8,228.4,222.4,227.9,223,227.4"/>
					</g>
				</g>
				<g id="XMLID_1232_" class="st7">
					<defs>
						<path id="XMLID_1235_" class="st7" d="M213.9,233.4c-1.5,0.4-3.1,0.6-4.8,0.6l2.6-2.6c1.7,0,3.3-0.2,4.8-0.6
							c-0.4,0.4-0.9,0.9-1.3,1.3c-0.1,0.1-0.1,0.1-0.2,0.2c-0.2,0.2-0.3,0.3-0.5,0.5c0,0-0.1,0.1-0.2,0.2c0,0-0.1,0.1-0.2,0.2
							C214.2,233.2,214.1,233.4,213.9,233.4z"/>
					</defs>
					<clipPath id="XMLID_287_">
						<use xlink:href="#XMLID_1235_"  style="overflow:visible;"/>
					</clipPath>
					<g id="XMLID_1233_" class="st56">
						<path id="XMLID_1234_" class="st13" d="M223,227.4l-2.6,2.6c-0.6,0.6-1.2,1.1-1.9,1.5c-1.5,0.9-3.1,1.6-4.6,2
							c-1.5,0.4-3.1,0.6-4.8,0.6l2.6-2.6c1.7,0,3.3-0.2,4.8-0.6c1.5-0.4,3-1.1,4.6-2C221.8,228.4,222.4,227.9,223,227.4"/>
					</g>
				</g>
				<g id="XMLID_1228_" class="st7">
					<defs>
						<path id="XMLID_1231_" class="st7" d="M223.7,228.1l-2.6,2.6c-0.6,0.6-1.3,1.2-2.1,1.6c-1.6,1-3.2,1.7-4.8,2.1
							c-1.6,0.4-3.3,0.7-5.1,0.7l2.6-2.6c1.8,0,3.5-0.2,5.1-0.7c1.6-0.4,3.2-1.1,4.8-2.1C222.4,229.2,223,228.7,223.7,228.1z"/>
					</defs>
					<clipPath id="XMLID_288_">
						<use xlink:href="#XMLID_1231_"  style="overflow:visible;"/>
					</clipPath>
					<g id="XMLID_1229_" class="st57">
						<path id="XMLID_1230_" class="st9" d="M223.7,228.1l-2.6,2.6c-0.6,0.6-1.3,1.2-2.1,1.6c-1.6,1-3.2,1.7-4.8,2.1
							c-1.6,0.4-3.3,0.7-5.1,0.7l2.6-2.6c1.8,0,3.5-0.2,5.1-0.7c1.6-0.4,3.2-1.1,4.8-2.1C222.4,229.2,223,228.7,223.7,228.1"/>
					</g>
				</g>
				<g id="XMLID_1224_">
					<path id="XMLID_1225_" class="st35" d="M211.6,214.5c1,0.9,1.5,1.9,1.5,3.2c0,1.4-0.3,2.5-1,3.4c-0.7,1-1.7,1.4-3,1.4h-9.5
						l0-9.4h8C209.3,213.2,210.7,213.6,211.6,214.5z M211.2,220.5c0.6-0.7,0.8-1.7,0.8-2.8c0-1-0.4-1.8-1.1-2.5
						c-0.8-0.7-1.9-1-3.4-1h-7l0,7.4h8.5C210,221.5,210.7,221.2,211.2,220.5"/>
				</g>
				<g id="XMLID_1222_">
					<polygon id="XMLID_1223_" class="st9" points="209.1,222.5 206.5,225.2 196.9,225.2 199.6,222.5 					"/>
				</g>
				<g id="XMLID_1220_">
					<polygon id="XMLID_1221_" class="st9" points="199.6,222.5 196.9,225.2 196.9,215.8 199.5,213.2 					"/>
				</g>
				<g id="XMLID_1218_">
					<polygon id="XMLID_1219_" class="st15" points="211.7,231.4 209.1,234.1 183.7,234.1 186.3,231.4 					"/>
				</g>
				<g id="XMLID_1216_">
					<polygon id="XMLID_1217_" class="st15" points="186.3,231.4 183.7,234.1 183.6,190.1 186.2,187.4 					"/>
				</g>
				<g id="XMLID_1211_">
					<path id="XMLID_1212_" class="st31" d="M224.7,212.9c1.1,2,1.7,4.2,1.7,6.5c0,1.9-0.5,3.7-1.5,5.4c-1,1.7-2.3,3.1-3.8,4
						c-1.5,0.9-3.1,1.6-4.6,2c-1.5,0.4-3.1,0.6-4.8,0.6h-25.4l-0.1-44h26.3c3.1,0,5.9,0.9,8.2,2.7c2.3,1.8,3.6,4.2,3.9,7.2
						c0,2-0.4,4-1.2,5.7c-0.8,1.8-2,3.2-3.6,4.4l-0.7,0.5l0.7,0.4C222,209.4,223.6,211,224.7,212.9z M212,221.1c0.7-0.9,1-2.1,1-3.4
						c0-1.3-0.5-2.3-1.5-3.2c-0.9-0.8-2.3-1.3-4-1.3h-8l0,9.4h9.5C210.3,222.5,211.3,222.1,212,221.1 M199.5,197l0,8.6h7.6
						c1.3,0,2.5-0.5,3.6-1.4c1.1-0.9,1.7-1.9,1.7-2.8c0-1.3-0.3-2.3-0.9-3.2c-0.6-0.9-1.5-1.3-2.6-1.3H199.5"/>
				</g>
				<g id="XMLID_1209_">
					<polygon id="XMLID_1210_" class="st9" points="185.3,232.4 182.7,235.1 182.6,189.1 185.2,186.4 					"/>
				</g>
				<g id="XMLID_1207_">
					<polygon id="XMLID_1208_" class="st9" points="211.7,232.4 209.1,235.1 182.7,235.1 185.3,232.4 					"/>
				</g>
				<g id="XMLID_1203_">
					<path id="XMLID_1204_" class="st35" d="M225.6,212.4c1.2,2.1,1.8,4.5,1.8,7c0,2-0.5,4.1-1.6,5.9c-1.1,1.9-2.5,3.3-4.1,4.3
						c-1.6,1-3.2,1.7-4.8,2.1c-1.6,0.4-3.3,0.7-5.1,0.7h-26.4l-0.1-46h27.3c3.4,0,6.3,1,8.8,2.9c2.5,2,3.9,4.6,4.3,8
						c0,2.2-0.4,4.3-1.3,6.2c-0.8,1.7-1.9,3.1-3.3,4.3C223,209,224.5,210.5,225.6,212.4z M224.9,224.9c1-1.7,1.5-3.6,1.5-5.4
						c0-2.3-0.6-4.5-1.7-6.5c-1.1-2-2.7-3.5-4.8-4.6l-0.7-0.4l0.7-0.5c1.6-1.2,2.8-2.6,3.6-4.4c0.8-1.8,1.2-3.7,1.2-5.7
						c-0.3-3-1.6-5.4-3.9-7.2c-2.3-1.8-5.1-2.7-8.2-2.7h-26.3l0.1,44h25.4c1.7,0,3.3-0.2,4.8-0.6c1.5-0.4,3-1.1,4.6-2
						C222.6,227.9,223.9,226.6,224.9,224.9"/>
				</g>
			</g>
			<g id="XMLID_1183_" class="st7">
				<g id="XMLID_1200_">
					<polygon id="XMLID_1201_" class="st9" points="250.1,187.4 247.5,190.1 233.8,190.1 236.4,187.4 					"/>
				</g>
				<g id="XMLID_1198_">
					<polygon id="XMLID_1199_" class="st9" points="250.2,231.4 247.6,234.1 247.5,190.1 250.1,187.4 					"/>
				</g>
				<g id="XMLID_1196_">
					<polygon id="XMLID_1197_" class="st15" points="236.5,231.4 233.9,234.1 233.8,190.1 236.4,187.4 					"/>
				</g>
				<g id="XMLID_1194_">
					<polygon id="XMLID_1195_" class="st15" points="250.2,231.4 247.6,234.1 233.9,234.1 236.5,231.4 					"/>
				</g>
				<g id="XMLID_1190_">
					<path id="XMLID_1191_" class="st35" d="M235.4,186.4h15.7l0.1,46h-15.7L235.4,186.4z M250.2,231.4l-0.1-44h-13.8l0.1,44H250.2"
						/>
				</g>
				<g id="XMLID_1188_">
					<polygon id="XMLID_1189_" class="st31" points="250.1,187.4 250.2,231.4 236.5,231.4 236.4,187.4 					"/>
				</g>
				<g id="XMLID_1186_">
					<polygon id="XMLID_1187_" class="st9" points="235.5,232.4 232.9,235.1 232.8,189.1 235.4,186.4 					"/>
				</g>
				<g id="XMLID_1184_">
					<polygon id="XMLID_1185_" class="st9" points="251.2,232.4 248.6,235.1 232.9,235.1 235.5,232.4 					"/>
				</g>
			</g>
			<g id="XMLID_1154_" class="st7">
				<g id="XMLID_1181_">
					<polygon id="XMLID_1182_" class="st9" points="302.1,187.4 299.5,190.1 286.2,190.1 288.8,187.4 					"/>
				</g>
				<g id="XMLID_1179_">
					<polygon id="XMLID_1180_" class="st9" points="272.3,187.4 269.7,190.1 255.9,190.1 258.5,187.4 					"/>
				</g>
				<g id="XMLID_1177_">
					<polygon id="XMLID_1178_" class="st15" points="281.1,215.9 278.5,218.5 286.2,190.1 288.8,187.4 					"/>
				</g>
				<g id="XMLID_1175_">
					<polygon id="XMLID_1176_" class="st9" points="280.6,214.2 277.9,216.8 285.4,189.1 288,186.4 					"/>
				</g>
				<g id="XMLID_1173_">
					<polygon id="XMLID_1174_" class="st9" points="280,215.9 277.4,218.5 269.7,190.1 272.3,187.4 					"/>
				</g>
				<g id="XMLID_1171_">
					<polygon id="XMLID_1172_" class="st9" points="281.1,215.9 278.5,218.5 277.4,218.5 280,215.9 					"/>
				</g>
				<g id="XMLID_1169_">
					<polygon id="XMLID_1170_" class="st9" points="287.5,231.4 284.9,234.1 299.5,190.1 302.1,187.4 					"/>
				</g>
				<g id="XMLID_1167_">
					<polygon id="XMLID_1168_" class="st15" points="287.5,231.4 284.9,234.1 271,234.1 273.6,231.4 					"/>
				</g>
				<g id="XMLID_1165_">
					<polygon id="XMLID_1166_" class="st15" points="273.6,231.4 271,234.1 255.9,190.1 258.5,187.4 					"/>
				</g>
				<g id="XMLID_1161_">
					<path id="XMLID_1162_" class="st35" d="M288,186.4h15.5l-15.3,46h-15.3l-15.8-46H273l7.5,27.8L288,186.4z M287.5,231.4l14.6-44
						h-13.3l-7.7,28.4H280l-7.7-28.4h-13.7l15.1,44H287.5"/>
				</g>
				<g id="XMLID_1159_">
					<polygon id="XMLID_1160_" class="st31" points="302.1,187.4 287.5,231.4 273.6,231.4 258.5,187.4 272.3,187.4 280,215.9 
						281.1,215.9 288.8,187.4 					"/>
				</g>
				<g id="XMLID_1157_">
					<polygon id="XMLID_1158_" class="st9" points="272.9,232.4 270.3,235.1 254.5,189.1 257.1,186.4 					"/>
				</g>
				<g id="XMLID_1155_">
					<polygon id="XMLID_1156_" class="st9" points="288.2,232.4 285.6,235.1 270.3,235.1 272.9,232.4 					"/>
				</g>
			</g>
			<g id="XMLID_1135_" class="st7">
				<g id="XMLID_1152_">
					<polygon id="XMLID_1153_" class="st9" points="324.9,187.4 322.3,190.1 308.5,190.1 311.2,187.4 					"/>
				</g>
				<g id="XMLID_1150_">
					<polygon id="XMLID_1151_" class="st9" points="325,231.4 322.4,234.1 322.3,190.1 324.9,187.4 					"/>
				</g>
				<g id="XMLID_1148_">
					<polygon id="XMLID_1149_" class="st15" points="311.3,231.4 308.7,234.1 308.5,190.1 311.2,187.4 					"/>
				</g>
				<g id="XMLID_1146_">
					<polygon id="XMLID_1147_" class="st15" points="325,231.4 322.4,234.1 308.7,234.1 311.3,231.4 					"/>
				</g>
				<g id="XMLID_1144_">
					<polygon id="XMLID_1145_" class="st31" points="324.9,187.4 325,231.4 311.3,231.4 311.2,187.4 					"/>
				</g>
				<g id="XMLID_1142_">
					<polygon id="XMLID_1143_" class="st9" points="310.3,232.4 307.7,235.1 307.5,189.1 310.2,186.4 					"/>
				</g>
				<g id="XMLID_1140_">
					<polygon id="XMLID_1141_" class="st9" points="326,232.4 323.4,235.1 307.7,235.1 310.3,232.4 					"/>
				</g>
				<g id="XMLID_1136_">
					<path id="XMLID_1137_" class="st35" d="M310.2,186.4h15.7l0.1,46h-15.7L310.2,186.4z M325,231.4l-0.1-44h-13.8l0.1,44H325"/>
				</g>
			</g>
			<g id="XMLID_1098_" class="st7">
				<g id="XMLID_1133_">
					<polygon id="XMLID_1134_" class="st9" points="378,187.4 375.4,190.1 362.6,190.1 365.2,187.4 					"/>
				</g>
				<g id="XMLID_1131_">
					<polygon id="XMLID_1132_" class="st15" points="365.3,212.3 362.7,215 362.6,190.1 365.2,187.4 					"/>
				</g>
				<g id="XMLID_1129_">
					<polygon id="XMLID_1130_" class="st9" points="364.3,209 361.6,211.6 361.6,189.1 364.2,186.4 					"/>
				</g>
				<g id="XMLID_1127_">
					<polygon id="XMLID_1128_" class="st9" points="365.3,212.3 362.7,215 346.4,190.1 349,187.4 					"/>
				</g>
				<g id="XMLID_1125_">
					<polygon id="XMLID_1126_" class="st9" points="349,187.4 346.4,190.1 333.4,190.1 336,187.4 					"/>
				</g>
				<g id="XMLID_1123_">
					<polygon id="XMLID_1124_" class="st9" points="378.1,231.4 375.5,234.1 375.4,190.1 378,187.4 					"/>
				</g>
				<g id="XMLID_1121_">
					<polygon id="XMLID_1122_" class="st15" points="378.1,231.4 375.5,234.1 362.2,234.1 364.8,231.4 					"/>
				</g>
				<g id="XMLID_1119_">
					<polygon id="XMLID_1120_" class="st15" points="364.8,231.4 362.2,234.1 346.2,209.4 348.8,206.8 					"/>
				</g>
				<g id="XMLID_1117_">
					<polygon id="XMLID_1118_" class="st9" points="364.3,232.4 361.7,235.1 347.2,212.8 349.8,210.2 					"/>
				</g>
				<g id="XMLID_1115_">
					<polygon id="XMLID_1116_" class="st9" points="379.1,232.4 376.5,235.1 361.7,235.1 364.3,232.4 					"/>
				</g>
				<g id="XMLID_1113_">
					<polygon id="XMLID_1114_" class="st9" points="348.9,231.4 346.3,234.1 346.2,209.4 348.8,206.8 					"/>
				</g>
				<g id="XMLID_1111_">
					<polygon id="XMLID_1112_" class="st15" points="348.9,231.4 346.3,234.1 333.5,234.1 336.1,231.4 					"/>
				</g>
				<g id="XMLID_1109_">
					<polygon id="XMLID_1110_" class="st15" points="336.1,231.4 333.5,234.1 333.4,190.1 336,187.4 					"/>
				</g>
				<g id="XMLID_1105_">
					<path id="XMLID_1106_" class="st35" d="M364.2,186.4H379l0.1,46h-14.9l-14.5-22.3l0.1,22.3h-14.7l-0.1-46h14.5l14.7,22.5
						L364.2,186.4z M378.1,231.4l-0.1-44h-12.8l0.1,24.9L349,187.4h-13l0.1,44h12.7l-0.1-24.6l16,24.6H378.1"/>
				</g>
				<g id="XMLID_1103_">
					<polygon id="XMLID_1104_" class="st31" points="378,187.4 378.1,231.4 364.8,231.4 348.8,206.8 348.9,231.4 336.1,231.4 
						336,187.4 349,187.4 365.3,212.3 365.2,187.4 					"/>
				</g>
				<g id="XMLID_1101_">
					<polygon id="XMLID_1102_" class="st9" points="349.9,232.4 347.3,235.1 332.5,235.1 335.1,232.4 					"/>
				</g>
				<g id="XMLID_1099_">
					<polygon id="XMLID_1100_" class="st9" points="335.1,232.4 332.5,235.1 332.4,189.1 335,186.4 					"/>
				</g>
			</g>
			<g id="XMLID_466_" class="st7">
				<g id="XMLID_1094_" class="st7">
					<defs>
						<path id="XMLID_1097_" class="st7" d="M389.2,193.7l2.6-2.6c0.3-0.3,0.6-0.6,1-0.9c1.6-1.4,3.8-2.4,6.3-3c2.6-0.6,5.4-1,8.5-1
							c2.8,0,5.4,0.5,7.8,1.4c2.4,0.9,4.6,2.4,6.5,4.5c1.7,1.9,2.8,4.3,3.1,7.1l-2.6,2.6c-0.3-2.8-1.4-5.2-3.1-7.1
							c-1.9-2.1-4.1-3.6-6.5-4.5c-2.5-0.9-5.1-1.4-7.8-1.4c-3.1,0-6,0.3-8.5,1c-2.5,0.6-4.7,1.6-6.3,3
							C389.8,193.1,389.5,193.4,389.2,193.7z"/>
					</defs>
					<clipPath id="XMLID_289_">
						<use xlink:href="#XMLID_1097_"  style="overflow:visible;"/>
					</clipPath>
					<g id="XMLID_1095_" class="st58">
						<path id="XMLID_1096_" class="st9" d="M425.1,199.2l-2.6,2.6c-0.3-2.8-1.4-5.2-3.1-7.1c-1.9-2.1-4.1-3.6-6.5-4.5
							c-2.5-0.9-5.1-1.4-7.8-1.4c-3.1,0-6,0.3-8.5,1c-2.5,0.6-4.7,1.6-6.3,3c-0.3,0.3-0.7,0.6-1,0.9l2.6-2.6c0.3-0.3,0.6-0.6,1-0.9
							c1.6-1.4,3.8-2.4,6.3-3c2.6-0.6,5.4-1,8.5-1c2.8,0,5.4,0.5,7.8,1.4c2.4,0.9,4.6,2.4,6.5,4.5
							C423.7,194,424.7,196.4,425.1,199.2"/>
					</g>
				</g>
				<g id="XMLID_1092_">
					<polygon id="XMLID_1093_" class="st15" points="425.1,199.2 422.5,201.9 409.7,201.9 412.4,199.2 					"/>
				</g>
				<g id="XMLID_1088_" class="st7">
					<defs>
						<path id="XMLID_1091_" class="st7" d="M402.6,197.7c-1.5,0-2.5,0.3-3.2,1l2.6-2.6c0.6-0.6,1.7-1,3.2-1c1.8,0,3.4,0.4,4.9,1.2
							c-0.9,0.9-1.7,1.7-2.6,2.6c0.9-0.9,1.7-1.7,2.6-2.6c1.4,0.7,2.1,1.7,2.3,2.9l-2.6,2.6c-0.2-1.2-0.9-2.2-2.3-2.9
							C406,198.1,404.4,197.7,402.6,197.7z"/>
					</defs>
					<clipPath id="XMLID_290_">
						<use xlink:href="#XMLID_1091_"  style="overflow:visible;"/>
					</clipPath>
					<g id="XMLID_1089_" class="st59">
						<path id="XMLID_1090_" class="st13" d="M412.4,199.2l-2.6,2.6c-0.2-1.2-0.9-2.2-2.3-2.9c-1.4-0.8-3.1-1.2-4.9-1.2
							c-1.5,0-2.5,0.3-3.2,1l2.6-2.6c0.6-0.6,1.7-1,3.2-1c1.8,0,3.4,0.4,4.9,1.2C411.4,197.1,412.2,198,412.4,199.2"/>
					</g>
				</g>
				<g id="XMLID_1086_">
					<polygon id="XMLID_1087_" class="st9" points="411.4,200.2 408.8,202.9 408.8,202.4 411.4,199.7 					"/>
				</g>
				<g id="XMLID_1084_">
					<polygon id="XMLID_1085_" class="st9" points="426.2,200.2 423.6,202.9 408.8,202.9 411.4,200.2 					"/>
				</g>
				<g id="XMLID_1080_" class="st7">
					<defs>
						<path id="XMLID_1083_" class="st7" d="M400.1,199.4l2.6-2.6c0.4-0.4,1.3-0.7,2.5-0.7c1.6,0,3.1,0.4,4.4,1.1
							c1.2,0.7,1.8,1.5,1.8,2.6l-2.6,2.6c0-1.1-0.6-1.9-1.8-2.6c-1.3-0.7-2.8-1.1-4.4-1.1C401.4,198.7,400.6,199,400.1,199.4z"/>
					</defs>
					<clipPath id="XMLID_291_">
						<use xlink:href="#XMLID_1083_"  style="overflow:visible;"/>
					</clipPath>
					<g id="XMLID_1081_" class="st60">
						<path id="XMLID_1082_" class="st9" d="M411.4,199.7l-2.6,2.6c0-1.1-0.6-1.9-1.8-2.6c-1.3-0.7-2.8-1.1-4.4-1.1
							c-1.2,0-2,0.2-2.5,0.7l2.6-2.6c0.4-0.4,1.3-0.7,2.5-0.7c1.6,0,3.1,0.4,4.4,1.1C410.8,197.9,411.4,198.7,411.4,199.7"/>
					</g>
				</g>
				<g id="XMLID_1076_" class="st7">
					<defs>
						<path id="XMLID_1079_" class="st7" d="M426.1,221.3l-2.6,2.6c0.3-1,0.4-2,0.4-3c0-2.7-0.8-5.2-2.3-7.3
							c-1.5-2.1-3.7-3.7-6.4-4.7l2.6-2.6c2.7,1,4.9,2.6,6.4,4.7c1.5,2.1,2.3,4.6,2.3,7.3C426.5,219.2,426.3,220.2,426.1,221.3z"/>
					</defs>
					<clipPath id="XMLID_292_">
						<use xlink:href="#XMLID_1079_"  style="overflow:visible;"/>
					</clipPath>
					<g id="XMLID_1077_" class="st61">
						<path id="XMLID_1078_" class="st9" d="M426.1,221.3l-2.6,2.6c0.3-1,0.4-2,0.4-3c0-2.7-0.8-5.2-2.3-7.3
							c-1.5-2.1-3.7-3.7-6.4-4.7l2.6-2.6c2.7,1,4.9,2.6,6.4,4.7c1.5,2.1,2.3,4.6,2.3,7.3C426.5,219.2,426.3,220.2,426.1,221.3"/>
					</g>
				</g>
				<g id="XMLID_1074_">
					<polygon id="XMLID_1075_" class="st9" points="417.7,206.2 415.1,208.8 399.6,204.1 402.2,201.5 					"/>
				</g>
				<g id="XMLID_1070_" class="st7">
					<defs>
						<path id="XMLID_1073_" class="st7" d="M399.4,198.7l2.6-2.6c-0.3,0.3-0.4,0.6-0.6,0.9c-0.3,1.1-0.5,1.9-0.5,2.3
							c0,0.5,0.1,0.8,0.3,1.1c0.2,0.2,0.4,0.5,1,1.1l-2.6,2.6c-0.5-0.5-0.8-0.8-1-1.1c-0.2-0.3-0.3-0.7-0.3-1.1
							c0-0.5,0.2-1.2,0.5-2.3C399,199.3,399.2,199,399.4,198.7z"/>
					</defs>
					<clipPath id="XMLID_293_">
						<use xlink:href="#XMLID_1073_"  style="overflow:visible;"/>
					</clipPath>
					<g id="XMLID_1071_" class="st62">
						<path id="XMLID_1072_" class="st9" d="M402.2,201.5l-2.6,2.6c-0.5-0.5-0.8-0.8-1-1.1c-0.2-0.3-0.3-0.7-0.3-1.1
							c0-0.5,0.2-1.2,0.5-2.3c0.1-0.4,0.3-0.7,0.6-0.9l2.6-2.6c-0.3,0.3-0.4,0.6-0.6,0.9c-0.3,1.1-0.5,1.9-0.5,2.3
							c0,0.5,0.1,0.8,0.3,1.1C401.4,200.7,401.7,201,402.2,201.5"/>
					</g>
				</g>
				<g id="XMLID_1066_" class="st7">
					<defs>
						<path id="XMLID_1069_" class="st7" d="M409.8,219.7c-0.2-0.2-0.4-0.3-0.6-0.5c0.9-0.9,1.7-1.7,2.6-2.6
							c0.2,0.1,0.4,0.3,0.6,0.5C411.6,218,410.7,218.8,409.8,219.7z"/>
					</defs>
					<clipPath id="XMLID_294_">
						<use xlink:href="#XMLID_1069_"  style="overflow:visible;"/>
					</clipPath>
					<g id="XMLID_1067_" class="st63">
						<path id="XMLID_1068_" class="st13" d="M412.8,217.5l-2.6,2.6c-0.2-0.4-0.5-0.7-0.9-0.9c-0.3-0.2-1-0.5-4.4-1.5
							c-2.5-0.7-6.1-1.8-10.6-3.2l2.6-2.6c4.5,1.4,8.1,2.4,10.6,3.2c3.4,1,4.2,1.3,4.4,1.5C412.3,216.9,412.6,217.2,412.8,217.5"/>
					</g>
				</g>
				<g id="XMLID_1062_" class="st7">
					<defs>
						<path id="XMLID_1065_" class="st7" d="M409.8,219.7c0,0,0.1-0.1,0.1-0.1c0,0,0.1-0.1,0.1-0.1c0,0,0.1-0.1,0.1-0.1
							c0,0,0.1-0.1,0.1-0.1s0.1-0.1,0.1-0.1c0,0,0.1-0.1,0.1-0.1c0,0,0.1-0.1,0.1-0.1c0,0,0.1-0.1,0.1-0.1c0.1-0.1,0.1-0.1,0.2-0.2
							c0.1-0.1,0.1-0.1,0.2-0.2c0.1-0.1,0.1-0.1,0.2-0.2c0.1-0.1,0.1-0.1,0.2-0.2c0.1-0.1,0.3-0.3,0.4-0.4c0.1-0.1,0.1-0.1,0.2-0.2
							c0.1-0.1,0.1-0.1,0.2-0.2c0.1,0.1,0.2,0.3,0.3,0.5l-2.6,2.6C410.1,220,410,219.8,409.8,219.7z"/>
					</defs>
					<clipPath id="XMLID_295_">
						<use xlink:href="#XMLID_1065_"  style="overflow:visible;"/>
					</clipPath>
					<g id="XMLID_1063_" class="st64">
						<path id="XMLID_1064_" class="st13" d="M412.8,217.5l-2.6,2.6c-0.2-0.4-0.5-0.7-0.9-0.9c-0.3-0.2-1-0.5-4.4-1.5
							c-2.5-0.7-6.1-1.8-10.6-3.2l2.6-2.6c4.5,1.4,8.1,2.4,10.6,3.2c3.4,1,4.2,1.3,4.4,1.5C412.3,216.9,412.6,217.2,412.8,217.5"/>
					</g>
				</g>
				<g id="XMLID_1058_" class="st7">
					<defs>
						<path id="XMLID_1061_" class="st7" d="M422.1,227.6l-2.6,2.6c1.8-1.8,3.1-3.9,3.9-6.4l2.6-2.6
							C425.3,223.7,423.9,225.8,422.1,227.6z"/>
					</defs>
					<clipPath id="XMLID_296_">
						<use xlink:href="#XMLID_1061_"  style="overflow:visible;"/>
					</clipPath>
					<g id="XMLID_1059_" class="st65">
						<path id="XMLID_1060_" class="st9" d="M422.1,227.6l-2.6,2.6c1.8-1.8,3.1-3.9,3.9-6.4l2.6-2.6
							C425.3,223.7,423.9,225.8,422.1,227.6"/>
					</g>
				</g>
				<g id="XMLID_1054_" class="st7">
					<defs>
						<path id="XMLID_1057_" class="st7" d="M413.2,219C413.2,219,413.2,219,413.2,219C413.2,219,413.2,219,413.2,219
							c-0.8,0.8-1.5,1.5-2.3,2.3C411.6,220.6,412.4,219.8,413.2,219z"/>
					</defs>
					<clipPath id="XMLID_297_">
						<use xlink:href="#XMLID_1057_"  style="overflow:visible;"/>
					</clipPath>
					<g id="XMLID_1055_" class="st66">
						<path id="XMLID_1056_" class="st13" d="M412,221.7l-2.6,2.6c0.8-0.8,1.2-1.7,1.2-2.7c0-0.6-0.1-1.1-0.4-1.5l2.6-2.6
							c0.3,0.4,0.4,0.9,0.4,1.5C413.2,220,412.8,220.9,412,221.7"/>
					</g>
				</g>
				<g id="XMLID_1050_" class="st7">
					<defs>
						<path id="XMLID_1053_" class="st7" d="M410.6,221.6c0-0.6-0.1-1.1-0.4-1.5c0.8-0.8,1.5-1.5,2.3-2.3l0.3-0.3
							c0.3,0.4,0.4,0.9,0.4,1.5c0,0,0,0,0,0c0,0,0,0,0,0c0,0,0,0,0,0C412.3,219.9,411.4,220.8,410.6,221.6c0.9-0.9,1.7-1.7,2.6-2.6
							c0,1-0.4,1.9-1.2,2.7l-2.6,2.6C410.2,223.5,410.6,222.6,410.6,221.6z"/>
					</defs>
					<clipPath id="XMLID_298_">
						<use xlink:href="#XMLID_1053_"  style="overflow:visible;"/>
					</clipPath>
					<g id="XMLID_1051_" class="st67">
						<path id="XMLID_1052_" class="st13" d="M412,221.7l-2.6,2.6c0.8-0.8,1.2-1.7,1.2-2.7c0-0.6-0.1-1.1-0.4-1.5l2.6-2.6
							c0.3,0.4,0.4,0.9,0.4,1.5C413.2,220,412.8,220.9,412,221.7"/>
					</g>
				</g>
				<g id="XMLID_1046_" class="st7">
					<defs>
						<path id="XMLID_1049_" class="st7" d="M411.3,221l-2.6,2.6c0.6-0.6,0.9-1.2,0.9-2c0-0.4-0.1-0.7-0.2-0.9
							c-0.2-0.3-0.4-0.5-0.6-0.7l2.6-2.6c0.3,0.2,0.5,0.4,0.6,0.7c0.1,0.2,0.2,0.5,0.2,0.9C412.2,219.7,411.9,220.4,411.3,221z"/>
					</defs>
					<clipPath id="XMLID_299_">
						<use xlink:href="#XMLID_1049_"  style="overflow:visible;"/>
					</clipPath>
					<g id="XMLID_1047_" class="st68">
						<path id="XMLID_1048_" class="st9" d="M411.3,221l-2.6,2.6c0.6-0.6,0.9-1.2,0.9-2c0-0.4-0.1-0.7-0.2-0.9
							c-0.2-0.3-0.4-0.5-0.6-0.7l2.6-2.6c0.3,0.2,0.5,0.4,0.6,0.7c0.1,0.2,0.2,0.5,0.2,0.9C412.2,219.7,411.9,220.4,411.3,221"/>
					</g>
				</g>
				<g id="XMLID_1042_" class="st7">
					<defs>
						<path id="XMLID_1045_" class="st7" d="M412,221.7l-2.6,2.6c-0.2,0.2-0.4,0.4-0.6,0.5l2.6-2.6
							C411.6,222.1,411.8,221.9,412,221.7z"/>
					</defs>
					<clipPath id="XMLID_300_">
						<use xlink:href="#XMLID_1045_"  style="overflow:visible;"/>
					</clipPath>
					<g id="XMLID_1043_" class="st69">
						<path id="XMLID_1044_" class="st9" d="M412,221.7l-2.6,2.6c-0.2,0.2-0.4,0.4-0.6,0.5l2.6-2.6
							C411.6,222.1,411.8,221.9,412,221.7"/>
					</g>
				</g>
				<g id="XMLID_1040_">
					<polygon id="XMLID_1041_" class="st9" points="411.4,222.2 408.8,224.9 408.6,224.9 411.2,222.3 					"/>
				</g>
				<g id="XMLID_514_" class="st7">
					<defs>
						<path id="XMLID_517_" class="st7" d="M404.8,217.7c-2.5-0.7-6.1-1.8-10.6-3.2l2.6-2.6c4.5,1.4,8.1,2.4,10.6,3.2
							c3.4,1,4.2,1.3,4.4,1.5c-0.9,0.9-1.7,1.7-2.6,2.6C409,219,408.3,218.7,404.8,217.7z"/>
					</defs>
					<clipPath id="XMLID_301_">
						<use xlink:href="#XMLID_517_"  style="overflow:visible;"/>
					</clipPath>
					<g id="XMLID_515_" class="st70">
						<path id="XMLID_516_" class="st13" d="M412.8,217.5l-2.6,2.6c-0.2-0.4-0.5-0.7-0.9-0.9c-0.3-0.2-1-0.5-4.4-1.5
							c-2.5-0.7-6.1-1.8-10.6-3.2l2.6-2.6c4.5,1.4,8.1,2.4,10.6,3.2c3.4,1,4.2,1.3,4.4,1.5C412.3,216.9,412.6,217.2,412.8,217.5"/>
					</g>
				</g>
				<g id="XMLID_510_" class="st7">
					<defs>
						<path id="XMLID_513_" class="st7" d="M411.3,217.4l-2.6,2.6c-0.1-0.1-0.8-0.4-4.1-1.4c-2.5-0.7-6.1-1.8-10.7-3.2l2.6-2.6
							c4.6,1.4,8.1,2.5,10.7,3.2C410.5,217,411.2,217.3,411.3,217.4z"/>
					</defs>
					<clipPath id="XMLID_302_">
						<use xlink:href="#XMLID_513_"  style="overflow:visible;"/>
					</clipPath>
					<g id="XMLID_511_" class="st71">
						<path id="XMLID_512_" class="st9" d="M411.3,217.4l-2.6,2.6c-0.1-0.1-0.8-0.4-4.1-1.4c-2.5-0.7-6.1-1.8-10.7-3.2l2.6-2.6
							c4.6,1.4,8.1,2.5,10.7,3.2C410.5,217,411.2,217.3,411.3,217.4"/>
					</g>
				</g>
				<g id="XMLID_506_" class="st7">
					<defs>
						<path id="XMLID_509_" class="st7" d="M389.2,193.7l2.6-2.6c-1.2,1.2-2,2.5-2.7,3.9c-0.8,1.8-1.2,3.8-1.2,5.8
							c0,0.6,0.1,1.6,0.2,2.8c0.1,1.2,1,2.5,2.5,4.1c1.6,1.6,3.7,3,6.1,4.3l-2.6,2.6c-2.5-1.3-4.5-2.7-6.1-4.3
							c-1.6-1.5-2.4-2.9-2.5-4.1c-0.1-1.3-0.2-2.2-0.2-2.8c0-2,0.4-3.9,1.2-5.8C387.2,196.1,388,194.8,389.2,193.7z"/>
					</defs>
					<clipPath id="XMLID_303_">
						<use xlink:href="#XMLID_509_"  style="overflow:visible;"/>
					</clipPath>
					<g id="XMLID_507_" class="st72">
						<path id="XMLID_508_" class="st13" d="M396.9,211.9l-2.6,2.6c-2.5-1.3-4.5-2.7-6.1-4.3c-1.6-1.5-2.4-2.9-2.5-4.1
							c-0.1-1.3-0.2-2.2-0.2-2.8c0-2,0.4-3.9,1.2-5.8c0.6-1.4,1.5-2.7,2.7-3.9l2.6-2.6c-1.2,1.2-2,2.5-2.7,3.9
							c-0.8,1.8-1.2,3.8-1.2,5.8c0,0.6,0.1,1.6,0.2,2.8c0.1,1.2,1,2.5,2.5,4.1C392.3,209.2,394.4,210.6,396.9,211.9"/>
					</g>
				</g>
				<g id="XMLID_502_" class="st7">
					<defs>
						<path id="XMLID_505_" class="st7" d="M388.5,193l2.6-2.6c-1.2,1.2-2.2,2.7-2.8,4.2c-0.8,2-1.2,4-1.2,6.1
							c0,0.6,0.1,1.6,0.2,2.9c0.2,1.4,1.1,3,2.8,4.7c1.7,1.6,3.8,3.1,6.4,4.5l-2.6,2.6c-2.6-1.4-4.8-2.9-6.4-4.5
							c-1.7-1.7-2.7-3.2-2.8-4.7c-0.1-1.3-0.2-2.3-0.2-2.9c0-2.1,0.4-4.2,1.2-6.1C386.3,195.6,387.2,194.2,388.5,193z"/>
					</defs>
					<clipPath id="XMLID_304_">
						<use xlink:href="#XMLID_505_"  style="overflow:visible;"/>
					</clipPath>
					<g id="XMLID_503_" class="st73">
						<path id="XMLID_504_" class="st9" d="M396.5,212.8l-2.6,2.6c-2.6-1.4-4.8-2.9-6.4-4.5c-1.7-1.7-2.7-3.2-2.8-4.7
							c-0.1-1.3-0.2-2.3-0.2-2.9c0-2.1,0.4-4.2,1.2-6.1c0.7-1.6,1.6-3,2.8-4.2l2.6-2.6c-1.2,1.2-2.2,2.7-2.8,4.2
							c-0.8,2-1.2,4-1.2,6.1c0,0.6,0.1,1.6,0.2,2.9c0.2,1.4,1.1,3,2.8,4.7C391.7,210,393.9,211.5,396.5,212.8"/>
					</g>
				</g>
				<g id="XMLID_498_" class="st7">
					<defs>
						<path id="XMLID_501_" class="st7" d="M411.2,222.3l-2.6,2.6c-1.5,0.5-2.9,0.7-4.2,0.7c-1.7,0-3.1-0.4-4.4-1.1
							c-1.2-0.7-2-1.8-2.5-3.2l2.6-2.6c0.5,1.4,1.3,2.5,2.5,3.2c1.2,0.8,2.7,1.1,4.4,1.1C408.3,223,409.8,222.8,411.2,222.3z"/>
					</defs>
					<clipPath id="XMLID_305_">
						<use xlink:href="#XMLID_501_"  style="overflow:visible;"/>
					</clipPath>
					<g id="XMLID_499_" class="st74">
						<path id="XMLID_500_" class="st9" d="M411.2,222.3l-2.6,2.6c-1.5,0.5-2.9,0.7-4.2,0.7c-1.7,0-3.1-0.4-4.4-1.1
							c-1.2-0.7-2-1.8-2.5-3.2l2.6-2.6c0.5,1.4,1.3,2.5,2.5,3.2c1.2,0.8,2.7,1.1,4.4,1.1C408.3,223,409.8,222.8,411.2,222.3"/>
					</g>
				</g>
				<g id="XMLID_494_" class="st7">
					<defs>
						<path id="XMLID_497_" class="st7" d="M417.5,231.9c-2.8,2.1-6,3.1-9.5,3.1c0.8-0.8,1.5-1.5,2.3-2.3l0.3-0.3
							c3.5,0,6.6-1.1,9.5-3.1C419.3,230.2,418.4,231.1,417.5,231.9c0.9-0.9,1.7-1.7,2.6-2.6c0.7-0.5,1.4-1.1,2-1.7l-2.6,2.6
							C418.9,230.9,418.3,231.4,417.5,231.9z"/>
					</defs>
					<clipPath id="XMLID_306_">
						<use xlink:href="#XMLID_497_"  style="overflow:visible;"/>
					</clipPath>
					<g id="XMLID_495_" class="st75">
						<path id="XMLID_496_" class="st13" d="M422.1,227.6l-2.6,2.6c-0.6,0.6-1.3,1.2-2,1.7c-2.8,2.1-6,3.1-9.5,3.1l2.6-2.6
							c3.5,0,6.6-1.1,9.5-3.1C420.9,228.8,421.5,228.2,422.1,227.6"/>
					</g>
				</g>
				<g id="XMLID_490_" class="st7">
					<defs>
						<path id="XMLID_493_" class="st7" d="M422.9,228.3l-2.6,2.6c-0.6,0.6-1.3,1.2-2.1,1.8c-3,2.2-6.4,3.3-10,3.3l2.6-2.6
							c3.7,0,7.1-1.1,10-3.3C421.5,229.6,422.2,229,422.9,228.3z"/>
					</defs>
					<clipPath id="XMLID_307_">
						<use xlink:href="#XMLID_493_"  style="overflow:visible;"/>
					</clipPath>
					<g id="XMLID_491_" class="st76">
						<path id="XMLID_492_" class="st9" d="M422.9,228.3l-2.6,2.6c-0.6,0.6-1.3,1.2-2.1,1.8c-3,2.2-6.4,3.3-10,3.3l2.6-2.6
							c3.7,0,7.1-1.1,10-3.3C421.5,229.6,422.2,229,422.9,228.3"/>
					</g>
				</g>
				<g id="XMLID_488_">
					<polygon id="XMLID_489_" class="st15" points="410.7,232.5 408.1,235.1 401,235.1 403.6,232.5 					"/>
				</g>
				<g id="XMLID_486_">
					<polygon id="XMLID_487_" class="st9" points="410.7,233.5 408.1,236.1 401,236.1 403.6,233.5 					"/>
				</g>
				<g id="XMLID_484_">
					<polygon id="XMLID_485_" class="st9" points="400.2,218.6 397.6,221.3 384.6,221.3 387.2,218.6 					"/>
				</g>
				<g id="XMLID_482_">
					<polygon id="XMLID_483_" class="st9" points="386.1,218.2 383.5,220.8 383.4,220.3 386,217.6 					"/>
				</g>
				<g id="XMLID_478_" class="st7">
					<defs>
						<path id="XMLID_481_" class="st7" d="M386.5,226.5c-1-1.5-1.6-3.3-1.9-5.3l2.6-2.6c0.3,2,1,3.8,1.9,5.3
							c1.1,1.7,3.1,3.6,5.9,5.6c-0.9,0.9-1.7,1.7-2.6,2.6c0.9-0.9,1.7-1.7,2.6-2.6c2.8,2,5.7,3,8.5,3l-2.6,2.6c-2.8,0-5.7-1-8.5-3
							C389.6,230.1,387.6,228.2,386.5,226.5z"/>
					</defs>
					<clipPath id="XMLID_308_">
						<use xlink:href="#XMLID_481_"  style="overflow:visible;"/>
					</clipPath>
					<g id="XMLID_479_" class="st77">
						<path id="XMLID_480_" class="st13" d="M403.6,232.5l-2.6,2.6c-2.8,0-5.7-1-8.5-3c-2.9-2-4.9-3.9-5.9-5.6
							c-1-1.5-1.6-3.3-1.9-5.3l2.6-2.6c0.3,2,1,3.8,1.9,5.3c1.1,1.7,3.1,3.6,5.9,5.6C397.9,231.5,400.8,232.5,403.6,232.5"/>
					</g>
				</g>
				<g id="XMLID_476_">
					<path id="XMLID_477_" class="st31" d="M407.6,186.2c2.8,0,5.4,0.5,7.8,1.4c2.4,0.9,4.6,2.4,6.5,4.5c1.7,1.9,2.8,4.3,3.1,7.1
						h-12.7c-0.2-1.2-0.9-2.2-2.3-2.9c-1.4-0.8-3.1-1.2-4.9-1.2c-2.1,0-3.3,0.6-3.7,1.9c-0.3,1.1-0.5,1.9-0.5,2.3
						c0,0.5,0.1,0.8,0.3,1.1c0.2,0.2,0.4,0.5,0.9,1l15.6,4.8c2.7,1,4.9,2.6,6.4,4.7c1.5,2.1,2.3,4.6,2.3,7.3c0,1-0.1,2-0.4,3
						c-1.1,3.3-3.1,6-5.9,8.1c-2.8,2.1-6,3.1-9.5,3.1h-7.1c-2.8,0-5.7-1-8.5-3c-2.9-2-4.9-3.9-5.9-5.6c-1-1.5-1.6-3.3-1.9-5.3h13
						c0.5,1.4,1.3,2.5,2.5,3.2c1.2,0.8,2.7,1.1,4.4,1.1c1.3,0,2.7-0.2,4.2-0.7l0.2-0.1c1.2-0.9,1.8-2,1.8-3.2c0-0.6-0.1-1.1-0.4-1.5
						c-0.2-0.4-0.5-0.7-0.9-0.9c-0.3-0.2-1-0.5-4.4-1.5c-2.5-0.7-6.1-1.8-10.6-3.2c-2.5-1.3-4.5-2.7-6.1-4.3
						c-1.6-1.5-2.4-2.9-2.5-4.1c-0.1-1.3-0.2-2.2-0.2-2.8c0-2,0.4-3.9,1.2-5.8c0.8-1.8,2-3.4,3.6-4.8c1.6-1.4,3.8-2.4,6.3-3
						C401.6,186.5,404.5,186.2,407.6,186.2z"/>
				</g>
				<g id="XMLID_472_">
					<path id="XMLID_473_" class="st35" d="M425,210.3c1.7,2.3,2.5,5,2.5,7.9c0,1.1-0.1,2.2-0.4,3.3c-1.2,3.5-3.3,6.4-6.3,8.6
						c-3,2.2-6.4,3.3-10,3.3h-7.1c-3.1,0-6.1-1.1-9.1-3.2c-3-2.1-5.1-4-6.2-5.8c-1.2-1.8-1.9-3.9-2.2-6.3l-0.1-0.6h14.9l0.1,0.4
						c0.4,1.4,1.1,2.4,2.2,3c1.1,0.7,2.4,1,3.8,1c1.2,0,2.4-0.2,3.8-0.6c0.9-0.7,1.3-1.5,1.3-2.4c0-0.4-0.1-0.7-0.2-0.9
						c-0.2-0.3-0.4-0.5-0.6-0.7c-0.1-0.1-0.8-0.4-4.1-1.4c-2.5-0.7-6.1-1.8-10.7-3.2c-2.6-1.4-4.8-2.9-6.4-4.5
						c-1.7-1.7-2.7-3.2-2.8-4.7c-0.1-1.3-0.2-2.3-0.2-2.9c0-2.1,0.4-4.2,1.2-6.1c0.8-2,2.1-3.7,3.9-5.2c1.7-1.4,4-2.5,6.7-3.2
						c2.6-0.7,5.6-1,8.8-1c2.9,0,5.6,0.5,8.2,1.5c2.6,1,4.9,2.6,6.9,4.8c2,2.2,3.2,5,3.5,8.2l0,0.5h-14.8l0-0.5
						c0-1.1-0.6-1.9-1.8-2.6c-1.3-0.7-2.8-1.1-4.4-1.1c-1.6,0-2.5,0.4-2.8,1.2c-0.4,1.2-0.5,1.8-0.5,2c0,0.3,0,0.4,0.1,0.6
						c0.1,0.1,0.2,0.3,0.7,0.7l15.3,4.6C421,206.3,423.3,208,425,210.3z M426.1,221.3c0.3-1,0.4-2,0.4-3c0-2.7-0.8-5.2-2.3-7.3
						c-1.5-2.1-3.7-3.7-6.4-4.7l-15.5-4.7c-0.5-0.5-0.8-0.8-1-1.1c-0.2-0.3-0.3-0.7-0.3-1.1c0-0.5,0.2-1.2,0.5-2.3
						c0.4-1.2,1.7-1.9,3.7-1.9c1.8,0,3.4,0.4,4.9,1.2c1.4,0.7,2.1,1.7,2.3,2.9h12.7c-0.3-2.8-1.4-5.2-3.1-7.1
						c-1.9-2.1-4.1-3.6-6.5-4.5c-2.5-0.9-5.1-1.4-7.8-1.4c-3.1,0-6,0.3-8.5,1c-2.5,0.6-4.7,1.6-6.3,3c-1.6,1.4-2.8,3-3.6,4.8
						c-0.8,1.8-1.2,3.8-1.2,5.8c0,0.6,0.1,1.6,0.2,2.8c0.1,1.2,1,2.5,2.5,4.1c1.6,1.6,3.7,3,6.1,4.3c4.5,1.4,8.1,2.4,10.6,3.2
						c3.4,1,4.2,1.3,4.4,1.5c0.4,0.3,0.7,0.6,0.9,0.9c0.3,0.4,0.4,0.9,0.4,1.5c0,1.2-0.6,2.3-1.8,3.2l-0.2,0.1
						c-1.5,0.5-2.9,0.7-4.2,0.7c-1.7,0-3.1-0.4-4.4-1.1c-1.2-0.7-2-1.8-2.5-3.2h-13c0.3,2,1,3.8,1.9,5.3c1.1,1.7,3.1,3.6,5.9,5.6
						c2.8,2,5.7,3,8.5,3h7.1c3.5,0,6.6-1.1,9.5-3.1C423,227.3,425,224.5,426.1,221.3"/>
				</g>
				<g id="XMLID_468_" class="st7">
					<defs>
						<path id="XMLID_471_" class="st7" d="M403.6,233.5l-2.6,2.6c-3.1,0-6.1-1.1-9.1-3.2c-3-2.1-5.1-4-6.2-5.8
							c-1.2-1.8-1.9-3.9-2.2-6.3l2.6-2.6c0.3,2.4,1,4.5,2.2,6.3c1.2,1.8,3.2,3.8,6.2,5.8C397.5,232.4,400.6,233.5,403.6,233.5z"/>
					</defs>
					<clipPath id="XMLID_309_">
						<use xlink:href="#XMLID_471_"  style="overflow:visible;"/>
					</clipPath>
					<g id="XMLID_469_" class="st78">
						<path id="XMLID_470_" class="st9" d="M403.6,233.5l-2.6,2.6c-3.1,0-6.1-1.1-9.1-3.2c-3-2.1-5.1-4-6.2-5.8
							c-1.2-1.8-1.9-3.9-2.2-6.3l2.6-2.6c0.3,2.4,1,4.5,2.2,6.3c1.2,1.8,3.2,3.8,6.2,5.8C397.5,232.4,400.6,233.5,403.6,233.5"/>
					</g>
				</g>
			</g>
		</g>
	</g>
</g>
</svg>
